<svg width="457" height="153" viewBox="0 0 457 153" fill="none" xmlns="http://www.w3.org/2000/svg">
<path d="M209.348 61.3821C214.028 61.3821 217.532 62.4501 219.86 64.5861C222.188 66.6981 223.352 69.7821 223.352 73.8381C223.352 76.4541 222.776 78.7461 221.624 80.7141C220.496 82.6581 218.852 84.1701 216.692 85.2501C214.556 86.3301 212 86.8701 209.024 86.8701L206.792 86.8341C205.4 86.7861 204.392 86.7621 203.768 86.7621C201.296 86.7621 199.448 86.7981 198.224 86.8701V86.1501C199.016 86.1021 199.592 86.0061 199.952 85.8621C200.336 85.7181 200.588 85.4421 200.708 85.0341C200.852 84.6261 200.924 83.9661 200.924 83.0541V65.1981C200.924 64.2861 200.852 63.6261 200.708 63.2181C200.588 62.8101 200.336 62.5341 199.952 62.3901C199.592 62.2461 199.016 62.1501 198.224 62.1021V61.3821C199.232 61.4541 200.684 61.4901 202.58 61.4901H203.696L205.136 61.4541C207.104 61.4061 208.508 61.3821 209.348 61.3821ZM209.312 62.0301C208.568 62.0301 208.004 62.1141 207.62 62.2821C207.26 62.4501 207.008 62.7501 206.864 63.1821C206.72 63.6141 206.648 64.2621 206.648 65.1261V83.1261C206.648 83.9901 206.72 84.6381 206.864 85.0701C207.008 85.5021 207.26 85.8021 207.62 85.9701C208.004 86.1381 208.58 86.2221 209.348 86.2221C212.252 86.2221 214.316 85.2141 215.54 83.1981C216.764 81.1581 217.376 78.0861 217.376 73.9821C217.376 69.8781 216.74 66.8661 215.468 64.9461C214.22 63.0021 212.168 62.0301 209.312 62.0301ZM244.754 82.1901C244.754 83.5581 244.838 85.1181 245.006 86.8701C243.446 86.7981 240.818 86.7621 237.122 86.7621C232.178 86.7621 228.458 86.7981 225.962 86.8701V86.1501C226.778 86.1021 227.366 86.0061 227.726 85.8621C228.086 85.7181 228.326 85.4421 228.446 85.0341C228.59 84.6261 228.662 83.9661 228.662 83.0541V68.7981C228.662 67.8861 228.59 67.2261 228.446 66.8181C228.326 66.4101 228.074 66.1341 227.69 65.9901C227.33 65.8461 226.754 65.7501 225.962 65.7021V64.9821C228.458 65.0541 232.178 65.0901 237.122 65.0901C240.482 65.0901 242.87 65.0541 244.286 64.9821C244.118 66.5901 244.034 68.0301 244.034 69.3021C244.034 70.2381 244.07 70.9821 244.142 71.5341H243.314C242.954 69.4701 242.33 68.0061 241.442 67.1421C240.554 66.2541 239.33 65.8101 237.77 65.8101H236.438C235.814 65.8101 235.346 65.8701 235.034 65.9901C234.722 66.0861 234.494 66.3021 234.35 66.6381C234.23 66.9501 234.17 67.4541 234.17 68.1501V75.4941H235.862C236.966 75.4941 237.794 75.1101 238.346 74.3421C238.922 73.5501 239.306 72.6381 239.498 71.6061H240.326C240.254 72.4221 240.218 73.3581 240.218 74.4141V75.8541C240.218 76.9341 240.29 78.3501 240.434 80.1021H239.606C239.438 78.9741 239.054 78.0501 238.454 77.3301C237.878 76.5861 237.014 76.2141 235.862 76.2141H234.17V83.7021C234.17 84.3981 234.23 84.9141 234.35 85.2501C234.494 85.5621 234.722 85.7781 235.034 85.8981C235.346 85.9941 235.814 86.0421 236.438 86.0421H237.986C239.69 86.0421 241.022 85.5501 241.982 84.5661C242.966 83.5821 243.65 81.9261 244.034 79.5981H244.862C244.79 80.2701 244.754 81.1341 244.754 82.1901ZM257.08 64.4781C258.184 64.4781 259.12 64.5981 259.888 64.8381C260.68 65.0781 261.424 65.4021 262.12 65.8101C262.384 65.9541 262.612 66.0741 262.804 66.1701C263.02 66.2661 263.2 66.3141 263.344 66.3141C263.56 66.3141 263.728 66.1941 263.848 65.9541C263.968 65.6901 264.064 65.2821 264.136 64.7301H264.964C264.844 66.1701 264.784 68.6661 264.784 72.2181H263.956C263.692 70.0581 262.996 68.3661 261.868 67.1421C260.74 65.8941 259.264 65.2701 257.44 65.2701C256.24 65.2701 255.268 65.5341 254.524 66.0621C253.804 66.5901 253.444 67.2741 253.444 68.1141C253.444 68.7621 253.636 69.3621 254.02 69.9141C254.428 70.4421 254.956 70.9341 255.604 71.3901C256.252 71.8461 257.2 72.4461 258.448 73.1901L259.24 73.6581C260.68 74.4741 261.856 75.2181 262.768 75.8901C263.68 76.5381 264.436 77.3181 265.036 78.2301C265.636 79.1181 265.936 80.1261 265.936 81.2541C265.936 83.2221 265.12 84.7341 263.488 85.7901C261.856 86.8461 259.708 87.3741 257.044 87.3741C255.892 87.3741 254.896 87.2421 254.056 86.9781C253.216 86.7381 252.364 86.4021 251.5 85.9701C250.9 85.6821 250.48 85.5381 250.24 85.5381C250.024 85.5381 249.856 85.6701 249.736 85.9341C249.616 86.1741 249.52 86.5701 249.448 87.1221H248.62C248.716 85.7781 248.764 82.8501 248.764 78.3381H249.592C249.76 80.8821 250.444 82.8861 251.644 84.3501C252.868 85.8141 254.584 86.5461 256.792 86.5461C257.872 86.5461 258.808 86.2701 259.6 85.7181C260.392 85.1661 260.788 84.3501 260.788 83.2701C260.788 82.3101 260.416 81.4821 259.672 80.7861C258.928 80.0901 257.656 79.2141 255.856 78.1581C253.576 76.8621 251.824 75.6261 250.6 74.4501C249.4 73.2741 248.8 71.8941 248.8 70.3101C248.8 68.4381 249.568 66.9981 251.104 65.9901C252.664 64.9821 254.656 64.4781 257.08 64.4781ZM287.834 83.8461C288.53 85.3341 289.286 86.1021 290.102 86.1501V86.8701C288.95 86.7981 287.378 86.7621 285.386 86.7621C282.818 86.7621 280.922 86.7981 279.698 86.8701V86.1501C280.49 86.1021 281.078 85.9821 281.462 85.7901C281.846 85.5741 282.038 85.2261 282.038 84.7461C282.038 84.3141 281.882 83.7741 281.57 83.1261L279.77 79.0221H272.21L271.778 79.9941C271.106 81.5781 270.77 82.8141 270.77 83.7021C270.77 84.5181 271.034 85.1181 271.562 85.5021C272.09 85.8861 272.87 86.1021 273.902 86.1501V86.8701C272.534 86.7981 271.154 86.7621 269.762 86.7621C268.466 86.7621 267.494 86.7981 266.846 86.8701V86.1501C267.422 86.0301 267.95 85.6701 268.43 85.0701C268.934 84.4461 269.462 83.5221 270.014 82.2981L277.61 64.9101C277.802 64.9341 278.078 64.9461 278.438 64.9461C278.822 64.9461 279.098 64.9341 279.266 64.9101L287.834 83.8461ZM279.446 78.3021L275.99 70.4181L272.534 78.3021H279.446ZM301.945 65.7021C301.129 65.7501 300.541 65.8461 300.181 65.9901C299.821 66.1341 299.569 66.4101 299.425 66.8181C299.305 67.2261 299.245 67.8861 299.245 68.7981V83.4861C299.245 84.2301 299.305 84.7821 299.425 85.1421C299.569 85.5021 299.797 85.7421 300.109 85.8621C300.421 85.9821 300.889 86.0421 301.513 86.0421H302.917C304.501 86.0421 305.833 85.4781 306.913 84.3501C307.993 83.1981 308.725 81.3501 309.109 78.8061H309.937C309.865 79.5981 309.829 80.5821 309.829 81.7581C309.829 83.2461 309.913 84.9501 310.081 86.8701C308.521 86.7981 305.893 86.7621 302.197 86.7621C297.253 86.7621 293.533 86.7981 291.037 86.8701V86.1501C291.853 86.1021 292.441 86.0061 292.801 85.8621C293.161 85.7181 293.401 85.4421 293.521 85.0341C293.665 84.6261 293.737 83.9661 293.737 83.0541V68.7981C293.737 67.8861 293.665 67.2261 293.521 66.8181C293.401 66.4101 293.149 66.1341 292.765 65.9901C292.405 65.8461 291.829 65.7501 291.037 65.7021V64.9821C292.261 65.0541 294.157 65.0901 296.725 65.0901C298.981 65.0901 300.721 65.0541 301.945 64.9821V65.7021ZM323.144 65.7021C322.328 65.7501 321.74 65.8461 321.38 65.9901C321.02 66.1341 320.768 66.4101 320.624 66.8181C320.504 67.2261 320.444 67.8861 320.444 68.7981V83.0541C320.444 83.9661 320.504 84.6261 320.624 85.0341C320.768 85.4421 321.02 85.7181 321.38 85.8621C321.74 86.0061 322.328 86.1021 323.144 86.1501V86.8701C321.92 86.7981 320.144 86.7621 317.816 86.7621C315.296 86.7621 313.436 86.7981 312.236 86.8701V86.1501C313.052 86.1021 313.64 86.0061 314 85.8621C314.36 85.7181 314.6 85.4421 314.72 85.0341C314.864 84.6261 314.936 83.9661 314.936 83.0541V68.7981C314.936 67.8861 314.864 67.2261 314.72 66.8181C314.6 66.4101 314.348 66.1341 313.964 65.9901C313.604 65.8461 313.028 65.7501 312.236 65.7021V64.9821C313.412 65.0541 315.272 65.0901 317.816 65.0901C320.144 65.0901 321.92 65.0541 323.144 64.9821V65.7021ZM348.167 65.7021C347.375 65.8221 346.787 66.0021 346.403 66.2421C346.043 66.4821 345.791 66.8661 345.647 67.3941C345.527 67.9221 345.467 68.7261 345.467 69.8061V86.9421L344.495 86.9061L343.559 86.9421L329.159 69.0501V82.0461C329.159 83.1021 329.255 83.9061 329.447 84.4581C329.639 84.9861 329.987 85.3701 330.491 85.6101C330.995 85.8501 331.787 86.0301 332.867 86.1501V86.8701C331.787 86.7981 330.419 86.7621 328.763 86.7621C327.443 86.7621 326.399 86.7981 325.631 86.8701V86.1501C326.423 86.0301 326.999 85.8501 327.359 85.6101C327.743 85.3701 327.995 84.9861 328.115 84.4581C328.259 83.9301 328.331 83.1261 328.331 82.0461V68.7981C328.331 67.8861 328.259 67.2261 328.115 66.8181C327.995 66.4101 327.743 66.1341 327.359 65.9901C326.999 65.8461 326.423 65.7501 325.631 65.7021V64.9821C326.399 65.0541 327.443 65.0901 328.763 65.0901C330.467 65.0901 331.931 65.0541 333.155 64.9821L344.639 79.2381V69.8061C344.639 68.7501 344.543 67.9581 344.351 67.4301C344.159 66.8781 343.799 66.4821 343.271 66.2421C342.767 66.0021 341.987 65.8221 340.931 65.7021V64.9821C341.987 65.0541 343.355 65.0901 345.035 65.0901C346.379 65.0901 347.423 65.0541 348.167 64.9821V65.7021ZM368.553 83.8461C369.249 85.3341 370.005 86.1021 370.821 86.1501V86.8701C369.669 86.7981 368.097 86.7621 366.105 86.7621C363.537 86.7621 361.641 86.7981 360.417 86.8701V86.1501C361.209 86.1021 361.797 85.9821 362.181 85.7901C362.565 85.5741 362.757 85.2261 362.757 84.7461C362.757 84.3141 362.601 83.7741 362.289 83.1261L360.489 79.0221H352.929L352.497 79.9941C351.825 81.5781 351.489 82.8141 351.489 83.7021C351.489 84.5181 351.753 85.1181 352.281 85.5021C352.809 85.8861 353.589 86.1021 354.621 86.1501V86.8701C353.253 86.7981 351.873 86.7621 350.481 86.7621C349.185 86.7621 348.213 86.7981 347.565 86.8701V86.1501C348.141 86.0301 348.669 85.6701 349.149 85.0701C349.653 84.4461 350.181 83.5221 350.733 82.2981L358.329 64.9101C358.521 64.9341 358.797 64.9461 359.157 64.9461C359.541 64.9461 359.817 64.9341 359.985 64.9101L368.553 83.8461ZM360.165 78.3021L356.709 70.4181L353.253 78.3021H360.165ZM390.919 64.9821C390.751 66.8061 390.667 68.4381 390.667 69.8781C390.667 71.2221 390.703 72.2781 390.775 73.0461H389.947C389.611 71.2221 389.203 69.7941 388.723 68.7621C388.267 67.7301 387.667 66.9861 386.923 66.5301C386.203 66.0501 385.267 65.8101 384.115 65.8101H382.999V82.6941C382.999 83.7021 383.095 84.4341 383.287 84.8901C383.479 85.3461 383.815 85.6581 384.295 85.8261C384.775 85.9941 385.555 86.1021 386.635 86.1501V86.8701C385.339 86.7981 383.179 86.7621 380.155 86.7621C377.107 86.7621 375.007 86.7981 373.854 86.8701V86.1501C374.935 86.1021 375.715 85.9941 376.195 85.8261C376.675 85.6581 377.011 85.3461 377.203 84.8901C377.395 84.4341 377.491 83.7021 377.491 82.6941V65.8101H376.375C375.223 65.8101 374.275 66.0501 373.531 66.5301C372.811 66.9861 372.211 67.7301 371.731 68.7621C371.275 69.7941 370.879 71.2221 370.543 73.0461H369.715C369.787 72.2781 369.823 71.2221 369.823 69.8781C369.823 68.4381 369.739 66.8061 369.571 64.9821C371.659 65.0541 375.187 65.0901 380.155 65.0901C385.219 65.0901 388.807 65.0541 390.919 64.9821ZM404.073 65.7021C403.257 65.7501 402.669 65.8461 402.309 65.9901C401.949 66.1341 401.697 66.4101 401.553 66.8181C401.433 67.2261 401.373 67.8861 401.373 68.7981V83.0541C401.373 83.9661 401.433 84.6261 401.553 85.0341C401.697 85.4421 401.949 85.7181 402.309 85.8621C402.669 86.0061 403.257 86.1021 404.073 86.1501V86.8701C402.849 86.7981 401.073 86.7621 398.745 86.7621C396.225 86.7621 394.365 86.7981 393.165 86.8701V86.1501C393.981 86.1021 394.569 86.0061 394.929 85.8621C395.289 85.7181 395.529 85.4421 395.649 85.0341C395.793 84.6261 395.865 83.9661 395.865 83.0541V68.7981C395.865 67.8861 395.793 67.2261 395.649 66.8181C395.529 66.4101 395.277 66.1341 394.893 65.9901C394.533 65.8461 393.957 65.7501 393.165 65.7021V64.9821C394.341 65.0541 396.201 65.0901 398.745 65.0901C401.073 65.0901 402.849 65.0541 404.073 64.9821V65.7021ZM418.664 64.4781C421.088 64.4781 423.212 64.9221 425.036 65.8101C426.86 66.6741 428.276 67.9581 429.284 69.6621C430.292 71.3421 430.796 73.3581 430.796 75.7101C430.796 78.0141 430.28 80.0541 429.248 81.8301C428.216 83.5821 426.776 84.9501 424.928 85.9341C423.08 86.8941 420.98 87.3741 418.628 87.3741C416.204 87.3741 414.08 86.9421 412.256 86.0781C410.432 85.1901 409.016 83.9061 408.008 82.2261C407 80.5221 406.496 78.4941 406.496 76.1421C406.496 73.8381 407.012 71.8101 408.044 70.0581C409.076 68.2821 410.516 66.9141 412.364 65.9541C414.212 64.9701 416.312 64.4781 418.664 64.4781ZM418.52 65.1261C417.272 65.1261 416.168 65.5941 415.208 66.5301C414.272 67.4421 413.54 68.7261 413.012 70.3821C412.508 72.0141 412.256 73.8861 412.256 75.9981C412.256 78.1341 412.544 80.0181 413.12 81.6501C413.696 83.2821 414.476 84.5421 415.46 85.4301C416.468 86.2941 417.572 86.7261 418.772 86.7261C420.02 86.7261 421.112 86.2701 422.048 85.3581C423.008 84.4221 423.74 83.1381 424.244 81.5061C424.772 79.8501 425.036 77.9661 425.036 75.8541C425.036 73.7181 424.748 71.8341 424.172 70.2021C423.596 68.5701 422.804 67.3221 421.796 66.4581C420.812 65.5701 419.72 65.1261 418.52 65.1261ZM455.78 65.7021C454.988 65.8221 454.4 66.0021 454.016 66.2421C453.656 66.4821 453.404 66.8661 453.26 67.3941C453.14 67.9221 453.08 68.7261 453.08 69.8061V86.9421L452.108 86.9061L451.172 86.9421L436.772 69.0501V82.0461C436.772 83.1021 436.868 83.9061 437.06 84.4581C437.252 84.9861 437.6 85.3701 438.104 85.6101C438.608 85.8501 439.4 86.0301 440.48 86.1501V86.8701C439.4 86.7981 438.032 86.7621 436.376 86.7621C435.056 86.7621 434.012 86.7981 433.244 86.8701V86.1501C434.036 86.0301 434.612 85.8501 434.972 85.6101C435.356 85.3701 435.608 84.9861 435.728 84.4581C435.872 83.9301 435.944 83.1261 435.944 82.0461V68.7981C435.944 67.8861 435.872 67.2261 435.728 66.8181C435.608 66.4101 435.356 66.1341 434.972 65.9901C434.612 65.8461 434.036 65.7501 433.244 65.7021V64.9821C434.012 65.0541 435.056 65.0901 436.376 65.0901C438.08 65.0901 439.544 65.0541 440.768 64.9821L452.252 79.2381V69.8061C452.252 68.7501 452.156 67.9581 451.964 67.4301C451.772 66.8781 451.412 66.4821 450.884 66.2421C450.38 66.0021 449.6 65.8221 448.544 65.7021V64.9821C449.6 65.0541 450.968 65.0901 452.648 65.0901C453.992 65.0901 455.036 65.0541 455.78 64.9821V65.7021Z" fill="#2C688C"/>
<path d="M37.3931 3.90187C33.0765 8.02649 32.0346 17.1923 35.4581 22.0808C37.2442 24.525 36.2023 27.122 26.9738 43.7732C18.6384 58.5913 15.8103 62.4104 13.8753 61.7993C12.3869 61.3411 8.96341 62.1049 5.98648 63.6325C0.776855 66.0767 0.776855 66.2295 0.776855 75.8536C0.776855 84.1029 1.22339 85.7833 4.05148 87.7692C5.83763 89.1441 9.55879 90.2134 12.0892 90.2134C16.5546 90.2134 17.2988 91.2828 27.2715 108.851C36.2023 124.738 37.3931 127.641 35.6069 129.474C32.4811 132.682 33.0765 142.611 36.5 147.042C38.1373 149.18 41.2631 151.319 43.4958 151.777C49.1519 152.847 57.0408 149.18 59.1246 144.597L60.7619 140.625H81.8981H103.034L104.672 144.597C105.714 146.736 108.839 149.486 111.667 150.708C116.133 152.541 117.472 152.541 121.938 150.708C124.766 149.486 127.743 147.194 128.636 145.514C131.017 140.931 130.571 132.835 128.041 129.779C125.808 127.488 126.552 125.655 136.376 108.698C146.497 90.9772 147.093 90.2134 151.856 90.2134C158.554 90.2134 164.359 84.8667 165.401 77.8396C166.592 70.0486 160.042 62.2576 152.005 62.1049C146.646 61.7993 146.349 61.6466 136.376 43.6205C127.147 27.122 126.403 24.9833 128.189 22.2335C134.292 13.3732 127.296 0.0827637 116.579 0.0827637C110.923 0.0827637 103.481 5.27673 103.481 9.2486C103.481 10.1652 95.8897 10.7762 82.047 10.7762C61.8039 10.7762 60.4643 10.6235 59.5712 7.72096C58.3804 3.90187 51.5335 0.0827637 45.7285 0.0827637C43.1981 0.0827637 39.7746 1.61041 37.3931 3.90187ZM55.4035 8.48477L60.7619 13.9843L55.85 19.1783C51.8312 23.3029 49.5985 24.525 45.4308 24.525C40.9654 24.525 39.6258 23.7612 38.2861 20.7059C35.6069 14.7481 36.2023 9.70689 39.7746 6.19333C44.5377 1.61041 49.4496 2.37422 55.4035 8.48477ZM123.426 6.34608C127.594 9.70689 128.338 14.4426 125.51 20.7059C124.171 23.7612 122.831 24.525 118.068 24.525C113.454 24.525 111.37 23.6084 107.946 19.7893C103.779 15.0536 103.779 14.7481 106.16 10.929C111.37 2.52699 116.877 0.999359 123.426 6.34608ZM104.225 19.7893C105.565 24.2195 108.988 26.5109 115.686 27.4275C121.491 28.3441 121.938 28.8024 131.911 46.3702C141.883 64.0908 142.032 64.7019 139.948 68.8265C137.12 74.326 137.12 77.6868 139.948 83.1863C142.181 87.3109 141.883 87.922 132.059 105.643C122.831 122.294 121.789 123.669 117.621 123.821C111.816 123.974 106.607 127.029 104.225 131.612C102.29 134.973 101.844 135.126 81.3027 135.279C66.8646 135.279 60.3154 134.82 60.3154 133.598C60.3154 129.626 52.4265 123.821 47.0681 123.821C42.1561 123.821 41.4119 123.058 37.6908 116.183C33.9696 109.462 33.8208 108.545 36.2023 108.545C37.5419 108.545 40.0723 107.476 41.5608 106.254C45.2819 103.351 50.4915 103.351 52.8731 106.254C55.2546 109.156 60.4643 109.156 64.1854 106.254C67.6089 103.504 72.5208 103.351 74.9024 105.795C76.242 107.17 76.6885 107.017 76.6885 105.032C76.6885 100.907 69.5439 99.9903 63.59 103.351C58.8269 105.948 58.3804 105.948 54.0639 103.504C48.5565 100.296 43.3469 100.143 40.9654 103.198C37.2442 107.781 32.1834 105.948 27.5692 98.3099C22.6573 90.3662 22.8061 88.6858 28.1646 92.3521C32.9277 95.4074 40.0723 95.5602 42.4538 92.5049C43.4958 91.2828 45.4308 90.2134 46.9192 90.2134C48.4077 90.2134 50.3427 91.2828 51.3846 92.5049C53.7662 95.5602 60.9108 95.4074 65.6739 92.3521C68.6508 90.2134 70.1393 90.0607 72.9673 91.4355C75.3489 92.5049 76.6885 92.6576 76.6885 91.7411C76.6885 90.8245 75.0512 89.4496 73.1162 88.533C70.1393 87.0054 68.502 87.3109 64.1854 90.0607L58.9758 93.4215L53.1708 90.0607L47.3658 86.5471L41.1142 89.9079L34.7138 93.4215L29.6531 90.2134C26.9738 88.3803 23.9969 87.3109 23.1038 87.922C22.3596 88.3803 21.6153 88.2275 21.6153 87.3109C21.6153 86.5471 22.3596 85.325 23.1038 84.8667C23.9969 84.4084 24.5923 82.5752 24.5923 80.8948C24.5923 77.3813 25.783 77.2285 29.6531 80.2838C33.0765 82.8808 38.8815 83.3391 40.2211 80.8948C42.6027 77.2285 47.6635 76.7702 53.1708 80.131C58.6781 83.3391 58.8269 83.3391 63.8877 80.4365C67.3112 78.6034 70.437 77.9923 72.9673 78.6034C75.9443 79.3672 76.8373 79.0617 76.3908 77.6868C75.3489 74.4787 68.9485 74.326 63.59 77.3813C58.9758 79.8255 58.2316 79.9782 54.6592 77.8396C50.7892 75.7009 50.6404 75.0898 50.6404 62.5632C50.6404 52.4808 51.3846 48.5089 53.6173 44.537C58.0827 36.7461 63.59 33.2325 72.5208 32.4687C79.07 32.0104 81.3027 32.4687 85.4704 35.524C91.5731 39.8014 95.592 45.1481 96.9316 50.8004C97.8247 54.6195 97.527 55.0777 93.8058 55.0777H89.9358L95.4431 60.4245L101.099 65.924L106.309 60.4245L111.667 55.0777H107.797C104.374 55.0777 103.779 54.3139 102.885 49.2727C101.844 42.2456 93.0616 31.0938 86.0658 28.1913C74.7535 23.3029 58.6781 27.122 50.9381 36.5933C45.8773 42.8566 43.9423 50.1893 43.9423 63.7853C43.9423 73.4094 43.4958 75.0898 40.6677 77.0757C38.8815 78.4506 36.3511 79.52 35.0115 79.52C31.8857 79.3672 27.2715 75.0898 23.9969 69.4375L21.3177 64.8546L31.4392 46.2174L41.7096 27.733L47.3658 27.5803C52.8731 27.5803 60.3154 22.3863 60.3154 18.4144C60.3154 17.4978 67.9066 16.8868 81.7493 16.8868C101.695 16.8868 103.332 17.0396 104.225 19.7893ZM103.183 58.4385C102.439 60.73 99.7597 60.1189 99.3132 57.522C99.0155 55.8416 99.6108 55.3833 101.248 55.9943C102.588 56.6054 103.332 57.6747 103.183 58.4385ZM20.5734 81.6586C17.8942 87.4637 14.7684 88.533 7.62379 85.6305C4.20032 84.4084 3.75378 83.3391 3.75378 76.6174C3.75378 68.2154 5.24225 66.2295 12.6846 65.4657C17.4476 65.0074 18.1919 65.4657 20.5734 70.6597C22.955 76.0064 22.955 76.6174 20.5734 81.6586ZM159.001 68.521C160.489 69.8958 161.531 72.9511 161.531 76.6174C161.531 81.5059 160.787 82.8808 157.066 84.8667C149.772 88.6858 145.456 87.922 142.627 81.8114C140.395 76.923 140.395 76.1591 142.776 70.6597C145.158 65.3129 145.753 64.8546 150.814 65.4657C153.791 65.7712 157.512 67.1461 159.001 68.521ZM54.5104 131.612C59.72 137.417 59.8689 139.098 55.1058 144.292C47.9612 152.236 36.5 148.111 36.5 137.57C36.5 126.724 46.9192 123.21 54.5104 131.612ZM125.51 130.696C128.189 136.654 127.594 141.695 124.022 145.208C119.259 149.791 113.007 149.18 108.095 143.528C103.927 138.945 103.927 138.64 106.16 134.362C109.137 129.321 112.858 127.182 119.259 127.029C122.831 126.877 124.171 127.793 125.51 130.696Z" fill="#2C688C"/>
<path d="M83.2378 68.0628C81.1539 73.7151 87.5543 79.0618 90.8289 74.4789C92.1685 72.6457 94.9966 71.8819 101.099 71.8819C105.714 71.8819 109.435 72.4929 109.435 73.2568C109.435 74.0206 110.477 74.9372 111.667 75.5482C116.43 77.3814 120.747 72.9512 118.961 68.0628C117.919 65.4658 111.667 65.0075 110.179 67.299C109.732 68.0628 105.267 68.8266 100.355 68.8266C95.4432 68.8266 91.5731 68.2156 91.5731 67.299C91.5731 64.8548 84.1308 65.4658 83.2378 68.0628Z" fill="#2C688C"/>
<path d="M99.9086 77.5342C99.3133 79.3673 95.8898 85.4779 92.3175 91.1301C87.1078 99.2266 85.6194 102.893 85.6194 107.934C85.6194 123.822 104.821 129.474 113.603 116.183C118.217 109.309 117.324 102.893 110.328 92.6578C107.5 88.3804 104.225 82.5754 103.034 79.6728C101.099 74.9372 100.802 74.7844 99.9086 77.5342ZM108.988 95.8658C110.923 98.4628 113.007 103.046 113.454 106.101C114.198 110.684 113.603 112.212 109.732 116.183C103.927 121.988 97.3782 122.294 92.3175 116.947C86.5125 111.142 87.2567 104.115 94.8479 92.3522L101.099 82.5754L103.332 86.7C104.523 89.1442 107.053 93.1161 108.988 95.8658Z" fill="#2C688C"/>
<path d="M105.862 100.143C106.458 101.824 107.053 105.49 107.053 108.087C107.053 110.837 107.5 113.128 108.244 113.128C110.328 113.128 109.583 103.046 107.053 99.9904C104.82 97.0879 104.672 97.0879 105.862 100.143Z" fill="#2C688C"/>
</svg>
