<svg width="188" height="107" viewBox="0 0 188 107" fill="none" xmlns="http://www.w3.org/2000/svg">
<path d="M31.598 7.51L23.2645 40.2138L38.1774 56.5749" stroke="white" stroke-width="3" stroke-linecap="round" stroke-linejoin="round"/>
<path d="M30.7243 39.8245L38.4753 48.82V67.1212" stroke="white" stroke-width="3" stroke-linecap="round" stroke-linejoin="round"/>
<path d="M70.3947 7.61987L78.7282 40.3236L63.8153 56.6848" stroke="white" stroke-width="3" stroke-linecap="round" stroke-linejoin="round"/>
<path d="M71.2684 39.9343L63.5173 48.9299V67.2311" stroke="white" stroke-width="3" stroke-linecap="round" stroke-linejoin="round"/>
<path d="M44.4006 23.0682C44.0373 22.4341 43.7167 21.8508 43.4174 21.3182C43.3747 21.2421 43.3105 21.166 43.2464 21.1153C42.9899 20.9124 42.6479 21.0139 42.4769 21.3182C42.1991 21.8508 41.8785 22.4088 41.4937 23.0682C39.8051 26.0102 37.283 30.4485 37.283 32.9847C37.283 34.8361 37.9242 36.5099 38.9502 37.7273C39.9761 38.9193 41.3868 39.6802 42.9472 39.6802C44.5075 39.6802 45.9182 38.9193 46.9442 37.702C47.9702 36.4846 48.6114 34.8107 48.6114 32.9593C48.6114 30.4231 46.0892 26.0102 44.4006 23.0682ZM46.1747 36.7889C45.3411 37.778 44.2083 38.3614 42.9472 38.3614C41.6861 38.3614 40.5532 37.7527 39.7196 36.7889C38.886 35.7998 38.3944 34.4556 38.3944 32.9593C38.3944 30.8289 40.8097 26.5935 42.4128 23.7783C42.6052 23.4486 42.7762 23.1189 42.9472 22.8399C43.1182 23.1189 43.2892 23.4486 43.4815 23.7783C45.0846 26.6188 47.4999 30.8289 47.4999 32.9593C47.4999 34.4556 46.9869 35.7998 46.1747 36.7889Z" fill="white"/>
<path d="M62.8838 4.39826C62.5205 3.76422 62.1998 3.18089 61.9006 2.6483C61.8578 2.57221 61.7937 2.49613 61.7296 2.4454C61.4731 2.24251 61.1311 2.34395 60.9601 2.6483C60.6823 3.18089 60.3616 3.73885 59.9769 4.39826C58.2883 7.34023 55.7661 11.7786 55.7661 14.3147C55.7661 16.1661 56.4073 17.84 57.4333 19.0574C58.4593 20.2494 59.87 21.0103 61.4304 21.0103C62.9907 21.0103 64.4014 20.2494 65.4274 19.032C66.4534 17.8147 67.0946 16.1408 67.0946 14.2894C67.0946 11.7532 64.5724 7.34023 62.8838 4.39826ZM64.6579 18.119C63.8243 19.1081 62.6915 19.6914 61.4304 19.6914C60.1693 19.6914 59.0364 19.0828 58.2028 18.119C57.3692 17.1299 56.8776 15.7857 56.8776 14.2894C56.8776 12.159 59.2929 7.92355 60.896 5.10839C61.0884 4.77869 61.2594 4.44899 61.4304 4.17001C61.6014 4.44899 61.7724 4.77869 61.9647 5.10839C63.5678 7.94892 65.9831 12.159 65.9831 14.2894C65.9831 15.7857 65.4701 17.1299 64.6579 18.119Z" fill="white"/>
<line x1="94.9963" y1="0.231445" x2="94.9963" y2="102.231" stroke="white" stroke-width="2"/>
<path d="M19.5143 73.8314C22.9277 73.8314 25.6903 74.8661 27.8023 76.9354C29.9357 78.9834 31.0023 81.6821 31.0023 85.0314C31.0023 88.3808 29.9357 91.0901 27.8023 93.1594C25.6903 95.2074 22.9277 96.2314 19.5143 96.2314H8.66634V95.9114H9.08234C9.637 95.9114 10.1063 95.7194 10.4903 95.3354C10.8957 94.9301 11.109 94.4501 11.1303 93.8954V75.9754C11.1303 75.4634 10.917 75.0368 10.4903 74.6954C10.085 74.3328 9.61567 74.1514 9.08234 74.1514H8.69834L8.66634 73.8314H19.5143ZM13.2103 74.7914V95.2714H19.5143C21.3063 95.2714 22.885 94.8448 24.2503 93.9914C25.637 93.1381 26.7037 91.9434 27.4503 90.4074C28.2183 88.8501 28.6023 87.0581 28.6023 85.0314C28.6023 81.9594 27.7597 79.4848 26.0743 77.6074C24.4103 75.7301 22.2237 74.7914 19.5143 74.7914H13.2103ZM34.1418 95.9114C34.7178 95.9114 35.2192 95.7408 35.6458 95.3994C36.0725 95.0581 36.2858 94.6528 36.2858 94.1834V79.0794C36.2858 78.6101 36.0725 78.2048 35.6458 77.8634C35.2192 77.5221 34.7072 77.3514 34.1098 77.3514H33.6938V77.0314H40.9258V77.3514H40.5098C39.9338 77.3514 39.4325 77.5114 39.0058 77.8314C38.6005 78.1514 38.3765 78.5461 38.3338 79.0154V94.2154C38.3552 94.6848 38.5792 95.0901 39.0058 95.4314C39.4325 95.7514 39.9338 95.9114 40.5098 95.9114H40.9258L40.9578 96.2314H33.6938V95.9114H34.1418ZM70.0758 95.9114H70.5558V96.2314H63.8998V95.9434H64.3798C64.6998 95.9434 64.9772 95.8261 65.2118 95.5914C65.4678 95.3354 65.5745 95.0368 65.5318 94.6954L63.8678 81.5114L57.8198 93.4154C57.2225 94.7168 56.8492 95.8048 56.6998 96.6794H56.3798L48.6678 81.7994L47.2278 94.6954C47.1852 95.0154 47.2812 95.3034 47.5158 95.5594C47.7718 95.8154 48.0705 95.9434 48.4118 95.9434H48.8598V96.2314H42.9398V95.9114H43.4198C44.1878 95.9114 44.7852 95.6341 45.2118 95.0794C45.4252 94.8021 45.5532 94.4714 45.5958 94.0874L48.0918 76.5834H48.4118L56.8598 92.8394L65.0198 76.5834H65.3078L67.8998 94.1514C67.9852 94.6848 68.2305 95.1114 68.6358 95.4314C69.0412 95.7514 69.5212 95.9114 70.0758 95.9114ZM72.9856 95.9114C73.4976 95.9114 73.9243 95.7514 74.2656 95.4314C74.6283 95.0901 74.8203 94.6848 74.8416 94.2154V79.0154C74.8416 78.5461 74.6603 78.1514 74.2976 77.8314C73.9349 77.5114 73.4976 77.3514 72.9856 77.3514H72.5376V77.0314H81.8816C82.7563 77.0314 83.5243 76.9674 84.1856 76.8394C84.8469 76.7114 85.2736 76.6048 85.4656 76.5194V80.1674L85.1136 80.1354V79.6554C85.1136 79.2074 84.9643 78.8234 84.6656 78.5034C84.3669 78.1834 83.9829 78.0234 83.5136 78.0234H76.8576V86.1514H82.3296C82.7563 86.1514 83.0763 86.0234 83.2896 85.7674C83.5243 85.5114 83.6416 85.1914 83.6416 84.8074V84.3914H83.9936V88.8714H83.6416V88.4554C83.6416 87.8581 83.4176 87.4528 82.9696 87.2394C82.7989 87.1754 82.6176 87.1328 82.4256 87.1114H76.8576V95.2394H81.8816C82.8629 95.2394 83.6843 95.0688 84.3456 94.7274C85.0283 94.3861 85.5403 93.9808 85.8816 93.5114C86.2443 93.0421 86.6069 92.4234 86.9696 91.6554H87.2896L85.5296 96.2314H72.5376V95.9114H72.9856Z" fill="white"/>
<path d="M116.856 22.8064V24.2014H114.081V33.2314H112.371V24.2014H109.581V22.8064H116.856ZM122.173 33.3664C121.393 33.3664 120.688 33.1914 120.058 32.8414C119.428 32.4814 118.933 31.9814 118.573 31.3414C118.213 30.6914 118.033 29.9414 118.033 29.0914C118.033 28.2514 118.218 27.5064 118.588 26.8564C118.958 26.2064 119.463 25.7064 120.103 25.3564C120.743 25.0064 121.458 24.8314 122.248 24.8314C123.038 24.8314 123.753 25.0064 124.393 25.3564C125.033 25.7064 125.538 26.2064 125.908 26.8564C126.278 27.5064 126.463 28.2514 126.463 29.0914C126.463 29.9314 126.273 30.6764 125.893 31.3264C125.513 31.9764 124.993 32.4814 124.333 32.8414C123.683 33.1914 122.963 33.3664 122.173 33.3664ZM122.173 31.8814C122.613 31.8814 123.023 31.7764 123.403 31.5664C123.793 31.3564 124.108 31.0414 124.348 30.6214C124.588 30.2014 124.708 29.6914 124.708 29.0914C124.708 28.4914 124.593 27.9864 124.363 27.5764C124.133 27.1564 123.828 26.8414 123.448 26.6314C123.068 26.4214 122.658 26.3164 122.218 26.3164C121.778 26.3164 121.368 26.4214 120.988 26.6314C120.618 26.8414 120.323 27.1564 120.103 27.5764C119.883 27.9864 119.773 28.4914 119.773 29.0914C119.773 29.9814 119.998 30.6714 120.448 31.1614C120.908 31.6414 121.483 31.8814 122.173 31.8814ZM135.639 24.9664V33.2314H133.929V32.2564C133.659 32.5964 133.304 32.8664 132.864 33.0664C132.434 33.2564 131.974 33.3514 131.484 33.3514C130.834 33.3514 130.249 33.2164 129.729 32.9464C129.219 32.6764 128.814 32.2764 128.514 31.7464C128.224 31.2164 128.079 30.5764 128.079 29.8264V24.9664H129.774V29.5714C129.774 30.3114 129.959 30.8814 130.329 31.2814C130.699 31.6714 131.204 31.8664 131.844 31.8664C132.484 31.8664 132.989 31.6714 133.359 31.2814C133.739 30.8814 133.929 30.3114 133.929 29.5714V24.9664H135.639ZM141.225 24.8314C141.865 24.8314 142.43 24.9614 142.92 25.2214C143.42 25.4714 143.81 25.7864 144.09 26.1664V24.9664H145.815V33.3664C145.815 34.1264 145.655 34.8014 145.335 35.3914C145.015 35.9914 144.55 36.4614 143.94 36.8014C143.34 37.1414 142.62 37.3114 141.78 37.3114C140.66 37.3114 139.73 37.0464 138.99 36.5164C138.25 35.9964 137.83 35.2864 137.73 34.3864H139.425C139.555 34.8164 139.83 35.1614 140.25 35.4214C140.68 35.6914 141.19 35.8264 141.78 35.8264C142.47 35.8264 143.025 35.6164 143.445 35.1964C143.875 34.7764 144.09 34.1664 144.09 33.3664V31.9864C143.8 32.3764 143.405 32.7064 142.905 32.9764C142.415 33.2364 141.855 33.3664 141.225 33.3664C140.505 33.3664 139.845 33.1864 139.245 32.8264C138.655 32.4564 138.185 31.9464 137.835 31.2964C137.495 30.6364 137.325 29.8914 137.325 29.0614C137.325 28.2314 137.495 27.4964 137.835 26.8564C138.185 26.2164 138.655 25.7214 139.245 25.3714C139.845 25.0114 140.505 24.8314 141.225 24.8314ZM144.09 29.0914C144.09 28.5214 143.97 28.0264 143.73 27.6064C143.5 27.1864 143.195 26.8664 142.815 26.6464C142.435 26.4264 142.025 26.3164 141.585 26.3164C141.145 26.3164 140.735 26.4264 140.355 26.6464C139.975 26.8564 139.665 27.1714 139.425 27.5914C139.195 28.0014 139.08 28.4914 139.08 29.0614C139.08 29.6314 139.195 30.1314 139.425 30.5614C139.665 30.9914 139.975 31.3214 140.355 31.5514C140.745 31.7714 141.155 31.8814 141.585 31.8814C142.025 31.8814 142.435 31.7714 142.815 31.5514C143.195 31.3314 143.5 31.0114 143.73 30.5914C143.97 30.1614 144.09 29.6614 144.09 29.0914ZM152.336 24.8314C152.966 24.8314 153.526 24.9664 154.016 25.2364C154.516 25.5064 154.906 25.9064 155.186 26.4364C155.476 26.9664 155.621 27.6064 155.621 28.3564V33.2314H153.926V28.6114C153.926 27.8714 153.741 27.3064 153.371 26.9164C153.001 26.5164 152.496 26.3164 151.856 26.3164C151.216 26.3164 150.706 26.5164 150.326 26.9164C149.956 27.3064 149.771 27.8714 149.771 28.6114V33.2314H148.061V22.1314H149.771V25.9264C150.061 25.5764 150.426 25.3064 150.866 25.1164C151.316 24.9264 151.806 24.8314 152.336 24.8314ZM159.797 26.3614V30.9364C159.797 31.2464 159.867 31.4714 160.007 31.6114C160.157 31.7414 160.407 31.8064 160.757 31.8064H161.807V33.2314H160.457C159.687 33.2314 159.097 33.0514 158.687 32.6914C158.277 32.3314 158.072 31.7464 158.072 30.9364V26.3614H157.097V24.9664H158.072V22.9114H159.797V24.9664H161.807V26.3614H159.797ZM166.848 26.3614H165.318V33.2314H163.593V26.3614H162.618V24.9664H163.593V24.3814C163.593 23.4314 163.843 22.7414 164.343 22.3114C164.853 21.8714 165.648 21.6514 166.728 21.6514V23.0764C166.208 23.0764 165.843 23.1764 165.633 23.3764C165.423 23.5664 165.318 23.9014 165.318 24.3814V24.9664H166.848V26.3614ZM175.849 24.9664V33.2314H174.139V32.2564C173.869 32.5964 173.514 32.8664 173.074 33.0664C172.644 33.2564 172.184 33.3514 171.694 33.3514C171.044 33.3514 170.459 33.2164 169.939 32.9464C169.429 32.6764 169.024 32.2764 168.724 31.7464C168.434 31.2164 168.289 30.5764 168.289 29.8264V24.9664H169.984V29.5714C169.984 30.3114 170.169 30.8814 170.539 31.2814C170.909 31.6714 171.414 31.8664 172.054 31.8664C172.694 31.8664 173.199 31.6714 173.569 31.2814C173.949 30.8814 174.139 30.3114 174.139 29.5714V24.9664H175.849ZM179.815 22.1314V33.2314H178.105V22.1314H179.815ZM116.406 55.1014H112.041L111.291 57.2314H109.506L113.241 46.7914H115.221L118.956 57.2314H117.156L116.406 55.1014ZM115.926 53.7064L114.231 48.8614L112.521 53.7064H115.926ZM122.29 50.1964C122.58 49.7964 122.975 49.4714 123.475 49.2214C123.985 48.9614 124.55 48.8314 125.17 48.8314C125.9 48.8314 126.56 49.0064 127.15 49.3564C127.74 49.7064 128.205 50.2064 128.545 50.8564C128.885 51.4964 129.055 52.2314 129.055 53.0614C129.055 53.8914 128.885 54.6364 128.545 55.2964C128.205 55.9464 127.735 56.4564 127.135 56.8264C126.545 57.1864 125.89 57.3664 125.17 57.3664C124.53 57.3664 123.96 57.2414 123.46 56.9914C122.97 56.7414 122.58 56.4214 122.29 56.0314V57.2314H120.58V46.1314H122.29V50.1964ZM127.315 53.0614C127.315 52.4914 127.195 52.0014 126.955 51.5914C126.725 51.1714 126.415 50.8564 126.025 50.6464C125.645 50.4264 125.235 50.3164 124.795 50.3164C124.365 50.3164 123.955 50.4264 123.565 50.6464C123.185 50.8664 122.875 51.1864 122.635 51.6064C122.405 52.0264 122.29 52.5214 122.29 53.0914C122.29 53.6614 122.405 54.1614 122.635 54.5914C122.875 55.0114 123.185 55.3314 123.565 55.5514C123.955 55.7714 124.365 55.8814 124.795 55.8814C125.235 55.8814 125.645 55.7714 126.025 55.5514C126.415 55.3214 126.725 54.9914 126.955 54.5614C127.195 54.1314 127.315 53.6314 127.315 53.0614ZM134.331 57.3664C133.551 57.3664 132.846 57.1914 132.216 56.8414C131.586 56.4814 131.091 55.9814 130.731 55.3414C130.371 54.6914 130.191 53.9414 130.191 53.0914C130.191 52.2514 130.376 51.5064 130.746 50.8564C131.116 50.2064 131.621 49.7064 132.261 49.3564C132.901 49.0064 133.616 48.8314 134.406 48.8314C135.196 48.8314 135.911 49.0064 136.551 49.3564C137.191 49.7064 137.696 50.2064 138.066 50.8564C138.436 51.5064 138.621 52.2514 138.621 53.0914C138.621 53.9314 138.431 54.6764 138.051 55.3264C137.671 55.9764 137.151 56.4814 136.491 56.8414C135.841 57.1914 135.121 57.3664 134.331 57.3664ZM134.331 55.8814C134.771 55.8814 135.181 55.7764 135.561 55.5664C135.951 55.3564 136.266 55.0414 136.506 54.6214C136.746 54.2014 136.866 53.6914 136.866 53.0914C136.866 52.4914 136.751 51.9864 136.521 51.5764C136.291 51.1564 135.986 50.8414 135.606 50.6314C135.226 50.4214 134.816 50.3164 134.376 50.3164C133.936 50.3164 133.526 50.4214 133.146 50.6314C132.776 50.8414 132.481 51.1564 132.261 51.5764C132.041 51.9864 131.931 52.4914 131.931 53.0914C131.931 53.9814 132.156 54.6714 132.606 55.1614C133.066 55.6414 133.641 55.8814 134.331 55.8814ZM147.797 48.9664V57.2314H146.087V56.2564C145.817 56.5964 145.462 56.8664 145.022 57.0664C144.592 57.2564 144.132 57.3514 143.642 57.3514C142.992 57.3514 142.407 57.2164 141.887 56.9464C141.377 56.6764 140.972 56.2764 140.672 55.7464C140.382 55.2164 140.237 54.5764 140.237 53.8264V48.9664H141.932V53.5714C141.932 54.3114 142.117 54.8814 142.487 55.2814C142.857 55.6714 143.362 55.8664 144.002 55.8664C144.642 55.8664 145.147 55.6714 145.517 55.2814C145.897 54.8814 146.087 54.3114 146.087 53.5714V48.9664H147.797ZM152.048 50.3614V54.9364C152.048 55.2464 152.118 55.4714 152.258 55.6114C152.408 55.7414 152.658 55.8064 153.008 55.8064H154.058V57.2314H152.708C151.938 57.2314 151.348 57.0514 150.938 56.6914C150.528 56.3314 150.323 55.7464 150.323 54.9364V50.3614H149.348V48.9664H150.323V46.9114H152.048V48.9664H154.058V50.3614H152.048ZM123.696 70.8064L120.606 81.2314H118.671L116.481 73.3414L114.156 81.2314L112.236 81.2464L109.281 70.8064H111.096L113.256 79.2964L115.596 70.8064H117.516L119.691 79.2514L121.866 70.8064H123.696ZM124.537 77.0614C124.537 76.2314 124.707 75.4964 125.047 74.8564C125.397 74.2164 125.867 73.7214 126.457 73.3714C127.057 73.0114 127.717 72.8314 128.437 72.8314C129.087 72.8314 129.652 72.9614 130.132 73.2214C130.622 73.4714 131.012 73.7864 131.302 74.1664V72.9664H133.027V81.2314H131.302V80.0014C131.012 80.3914 130.617 80.7164 130.117 80.9764C129.617 81.2364 129.047 81.3664 128.407 81.3664C127.697 81.3664 127.047 81.1864 126.457 80.8264C125.867 80.4564 125.397 79.9464 125.047 79.2964C124.707 78.6364 124.537 77.8914 124.537 77.0614ZM131.302 77.0914C131.302 76.5214 131.182 76.0264 130.942 75.6064C130.712 75.1864 130.407 74.8664 130.027 74.6464C129.647 74.4264 129.237 74.3164 128.797 74.3164C128.357 74.3164 127.947 74.4264 127.567 74.6464C127.187 74.8564 126.877 75.1714 126.637 75.5914C126.407 76.0014 126.292 76.4914 126.292 77.0614C126.292 77.6314 126.407 78.1314 126.637 78.5614C126.877 78.9914 127.187 79.3214 127.567 79.5514C127.957 79.7714 128.367 79.8814 128.797 79.8814C129.237 79.8814 129.647 79.7714 130.027 79.5514C130.407 79.3314 130.712 79.0114 130.942 78.5914C131.182 78.1614 131.302 77.6614 131.302 77.0914ZM137.268 74.3614V78.9364C137.268 79.2464 137.338 79.4714 137.478 79.6114C137.628 79.7414 137.878 79.8064 138.228 79.8064H139.278V81.2314H137.928C137.158 81.2314 136.568 81.0514 136.158 80.6914C135.748 80.3314 135.543 79.7464 135.543 78.9364V74.3614H134.568V72.9664H135.543V70.9114H137.268V72.9664H139.278V74.3614H137.268ZM148.429 76.8964C148.429 77.2064 148.409 77.4864 148.369 77.7364H142.054C142.104 78.3964 142.349 78.9264 142.789 79.3264C143.229 79.7264 143.769 79.9264 144.409 79.9264C145.329 79.9264 145.979 79.5414 146.359 78.7714H148.204C147.954 79.5314 147.499 80.1564 146.839 80.6464C146.189 81.1264 145.379 81.3664 144.409 81.3664C143.619 81.3664 142.909 81.1914 142.279 80.8414C141.659 80.4814 141.169 79.9814 140.809 79.3414C140.459 78.6914 140.284 77.9414 140.284 77.0914C140.284 76.2414 140.454 75.4964 140.794 74.8564C141.144 74.2064 141.629 73.7064 142.249 73.3564C142.879 73.0064 143.599 72.8314 144.409 72.8314C145.189 72.8314 145.884 73.0014 146.494 73.3414C147.104 73.6814 147.579 74.1614 147.919 74.7814C148.259 75.3914 148.429 76.0964 148.429 76.8964ZM146.644 76.3564C146.634 75.7264 146.409 75.2214 145.969 74.8414C145.529 74.4614 144.984 74.2714 144.334 74.2714C143.744 74.2714 143.239 74.4614 142.819 74.8414C142.399 75.2114 142.149 75.7164 142.069 76.3564H146.644ZM151.822 74.1664C152.072 73.7464 152.402 73.4214 152.812 73.1914C153.232 72.9514 153.727 72.8314 154.297 72.8314V74.6014H153.862C153.192 74.6014 152.682 74.7714 152.332 75.1114C151.992 75.4514 151.822 76.0414 151.822 76.8814V81.2314H150.112V72.9664H151.822V74.1664Z" fill="white"/>
</svg>
