<svg width="187" height="121" viewBox="0 0 187 121" fill="none" xmlns="http://www.w3.org/2000/svg">
<path d="M30.6016 22.279L22.2682 54.9828L37.1811 71.3439" stroke="white" stroke-width="3" stroke-linecap="round" stroke-linejoin="round"/>
<path d="M29.728 54.5935L37.479 63.589V81.8903" stroke="white" stroke-width="3" stroke-linecap="round" stroke-linejoin="round"/>
<path d="M69.3984 22.3887L77.7318 55.0924L62.8189 71.4536" stroke="white" stroke-width="3" stroke-linecap="round" stroke-linejoin="round"/>
<path d="M70.272 54.7031L62.521 63.6987V81.9999" stroke="white" stroke-width="3" stroke-linecap="round" stroke-linejoin="round"/>
<path d="M43.4043 20.6632C43.0409 20.0312 42.7203 19.4497 42.4211 18.9188C42.3783 18.843 42.3142 18.7671 42.2501 18.7166C41.9936 18.5143 41.6516 18.6154 41.4806 18.9188C41.2027 19.4497 40.8821 20.0059 40.4974 20.6632C38.8088 23.5959 36.2866 28.0202 36.2866 30.5484C36.2866 32.394 36.9279 34.0625 37.9538 35.2761C38.9798 36.4643 40.3905 37.2228 41.9508 37.2228C43.5112 37.2228 44.9219 36.4643 45.9479 35.2508C46.9738 34.0373 47.6151 32.3687 47.6151 30.5231C47.6151 27.9949 45.0929 23.5959 43.4043 20.6632ZM45.1784 34.3406C44.3448 35.3266 43.2119 35.9081 41.9508 35.9081C40.6898 35.9081 39.5569 35.3014 38.7233 34.3406C37.8897 33.3547 37.3981 32.0147 37.3981 30.5231C37.3981 28.3994 39.8134 24.1774 41.4165 21.3711C41.6089 21.0425 41.7798 20.7138 41.9508 20.4357C42.1218 20.7138 42.2928 21.0425 42.4852 21.3711C44.0883 24.2027 46.5036 28.3994 46.5036 30.5231C46.5036 32.0147 45.9906 33.3547 45.1784 34.3406Z" fill="white"/>
<path d="M61.8877 2.05192C61.5243 1.41987 61.2037 0.838394 60.9045 0.307478C60.8617 0.231633 60.7976 0.155788 60.7335 0.105224C60.477 -0.0970293 60.135 0.00409746 59.964 0.307478C59.6861 0.838394 59.3655 1.39459 58.9808 2.05192C57.2922 4.98459 54.77 9.40889 54.77 11.9371C54.77 13.7826 55.4113 15.4512 56.4372 16.6647C57.4632 17.853 58.8739 18.6114 60.4342 18.6114C61.9946 18.6114 63.4053 17.853 64.4313 16.6395C65.4572 15.4259 66.0985 13.7573 66.0985 11.9118C66.0985 9.38361 63.5763 4.98459 61.8877 2.05192ZM63.6618 15.7293C62.8282 16.7153 61.6953 17.2968 60.4342 17.2968C59.1732 17.2968 58.0403 16.69 57.2067 15.7293C56.3731 14.7433 55.8815 13.4034 55.8815 11.9118C55.8815 9.78812 58.2968 5.56607 59.8999 2.7598C60.0923 2.43114 60.2632 2.10248 60.4342 1.82438C60.6052 2.10248 60.7762 2.43114 60.9686 2.7598C62.5717 5.59135 64.987 9.78812 64.987 11.9118C64.987 13.4034 64.474 14.7433 63.6618 15.7293Z" fill="white"/>
<line x1="94" y1="15" x2="94" y2="117" stroke="white" stroke-width="2"/>
<path d="M18.518 88.6C21.9313 88.6 24.694 89.6347 26.806 91.704C28.9393 93.752 30.006 96.4507 30.006 99.8C30.006 103.149 28.9393 105.859 26.806 107.928C24.694 109.976 21.9313 111 18.518 111H7.67V110.68H8.086C8.64067 110.68 9.11 110.488 9.494 110.104C9.89933 109.699 10.1127 109.219 10.134 108.664V90.744C10.134 90.232 9.92067 89.8053 9.494 89.464C9.08867 89.1013 8.61933 88.92 8.086 88.92H7.702L7.67 88.6H18.518ZM12.214 89.56V110.04H18.518C20.31 110.04 21.8887 109.613 23.254 108.76C24.6407 107.907 25.7073 106.712 26.454 105.176C27.222 103.619 27.606 101.827 27.606 99.8C27.606 96.728 26.7633 94.2533 25.078 92.376C23.414 90.4987 21.2273 89.56 18.518 89.56H12.214ZM33.1455 110.68C33.7215 110.68 34.2228 110.509 34.6495 110.168C35.0762 109.827 35.2895 109.421 35.2895 108.952V93.848C35.2895 93.3787 35.0762 92.9733 34.6495 92.632C34.2228 92.2907 33.7108 92.12 33.1135 92.12H32.6975V91.8H39.9295V92.12H39.5135C38.9375 92.12 38.4362 92.28 38.0095 92.6C37.6042 92.92 37.3802 93.3147 37.3375 93.784V108.984C37.3588 109.453 37.5828 109.859 38.0095 110.2C38.4362 110.52 38.9375 110.68 39.5135 110.68H39.9295L39.9615 111H32.6975V110.68H33.1455ZM69.0795 110.68H69.5595V111H62.9035V110.712H63.3835C63.7035 110.712 63.9808 110.595 64.2155 110.36C64.4715 110.104 64.5782 109.805 64.5355 109.464L62.8715 96.28L56.8235 108.184C56.2262 109.485 55.8528 110.573 55.7035 111.448H55.3835L47.6715 96.568L46.2315 109.464C46.1888 109.784 46.2848 110.072 46.5195 110.328C46.7755 110.584 47.0742 110.712 47.4155 110.712H47.8635V111H41.9435V110.68H42.4235C43.1915 110.68 43.7888 110.403 44.2155 109.848C44.4288 109.571 44.5568 109.24 44.5995 108.856L47.0955 91.352H47.4155L55.8635 107.608L64.0235 91.352H64.3115L66.9035 108.92C66.9888 109.453 67.2342 109.88 67.6395 110.2C68.0448 110.52 68.5248 110.68 69.0795 110.68ZM71.9893 110.68C72.5013 110.68 72.9279 110.52 73.2693 110.2C73.6319 109.859 73.8239 109.453 73.8453 108.984V93.784C73.8453 93.3147 73.6639 92.92 73.3013 92.6C72.9386 92.28 72.5013 92.12 71.9893 92.12H71.5413V91.8H80.8853C81.7599 91.8 82.5279 91.736 83.1893 91.608C83.8506 91.48 84.2773 91.3733 84.4693 91.288V94.936L84.1173 94.904V94.424C84.1173 93.976 83.9679 93.592 83.6693 93.272C83.3706 92.952 82.9866 92.792 82.5173 92.792H75.8613V100.92H81.3333C81.7599 100.92 82.0799 100.792 82.2933 100.536C82.5279 100.28 82.6453 99.96 82.6453 99.576V99.16H82.9973V103.64H82.6453V103.224C82.6453 102.627 82.4213 102.221 81.9733 102.008C81.8026 101.944 81.6213 101.901 81.4293 101.88H75.8613V110.008H80.8853C81.8666 110.008 82.6879 109.837 83.3493 109.496C84.0319 109.155 84.5439 108.749 84.8853 108.28C85.2479 107.811 85.6106 107.192 85.9733 106.424H86.2933L84.5333 111H71.5413V110.68H71.9893Z" fill="white"/>
<path d="M115.86 37.575V38.97H113.085V48H111.375V38.97H108.585V37.575H115.86ZM121.177 48.135C120.397 48.135 119.692 47.96 119.062 47.61C118.432 47.25 117.937 46.75 117.577 46.11C117.217 45.46 117.037 44.71 117.037 43.86C117.037 43.02 117.222 42.275 117.592 41.625C117.962 40.975 118.467 40.475 119.107 40.125C119.747 39.775 120.462 39.6 121.252 39.6C122.042 39.6 122.757 39.775 123.397 40.125C124.037 40.475 124.542 40.975 124.912 41.625C125.282 42.275 125.467 43.02 125.467 43.86C125.467 44.7 125.277 45.445 124.897 46.095C124.517 46.745 123.997 47.25 123.337 47.61C122.687 47.96 121.967 48.135 121.177 48.135ZM121.177 46.65C121.617 46.65 122.027 46.545 122.407 46.335C122.797 46.125 123.112 45.81 123.352 45.39C123.592 44.97 123.712 44.46 123.712 43.86C123.712 43.26 123.597 42.755 123.367 42.345C123.137 41.925 122.832 41.61 122.452 41.4C122.072 41.19 121.662 41.085 121.222 41.085C120.782 41.085 120.372 41.19 119.992 41.4C119.622 41.61 119.327 41.925 119.107 42.345C118.887 42.755 118.777 43.26 118.777 43.86C118.777 44.75 119.002 45.44 119.452 45.93C119.912 46.41 120.487 46.65 121.177 46.65ZM134.642 39.735V48H132.932V47.025C132.662 47.365 132.307 47.635 131.867 47.835C131.437 48.025 130.977 48.12 130.487 48.12C129.837 48.12 129.252 47.985 128.732 47.715C128.222 47.445 127.817 47.045 127.517 46.515C127.227 45.985 127.082 45.345 127.082 44.595V39.735H128.777V44.34C128.777 45.08 128.962 45.65 129.332 46.05C129.702 46.44 130.207 46.635 130.847 46.635C131.487 46.635 131.992 46.44 132.362 46.05C132.742 45.65 132.932 45.08 132.932 44.34V39.735H134.642ZM140.228 39.6C140.868 39.6 141.433 39.73 141.923 39.99C142.423 40.24 142.813 40.555 143.093 40.935V39.735H144.818V48.135C144.818 48.895 144.658 49.57 144.338 50.16C144.018 50.76 143.553 51.23 142.943 51.57C142.343 51.91 141.623 52.08 140.783 52.08C139.663 52.08 138.733 51.815 137.993 51.285C137.253 50.765 136.833 50.055 136.733 49.155H138.428C138.558 49.585 138.833 49.93 139.253 50.19C139.683 50.46 140.193 50.595 140.783 50.595C141.473 50.595 142.028 50.385 142.448 49.965C142.878 49.545 143.093 48.935 143.093 48.135V46.755C142.803 47.145 142.408 47.475 141.908 47.745C141.418 48.005 140.858 48.135 140.228 48.135C139.508 48.135 138.848 47.955 138.248 47.595C137.658 47.225 137.188 46.715 136.838 46.065C136.498 45.405 136.328 44.66 136.328 43.83C136.328 43 136.498 42.265 136.838 41.625C137.188 40.985 137.658 40.49 138.248 40.14C138.848 39.78 139.508 39.6 140.228 39.6ZM143.093 43.86C143.093 43.29 142.973 42.795 142.733 42.375C142.503 41.955 142.198 41.635 141.818 41.415C141.438 41.195 141.028 41.085 140.588 41.085C140.148 41.085 139.738 41.195 139.358 41.415C138.978 41.625 138.668 41.94 138.428 42.36C138.198 42.77 138.083 43.26 138.083 43.83C138.083 44.4 138.198 44.9 138.428 45.33C138.668 45.76 138.978 46.09 139.358 46.32C139.748 46.54 140.158 46.65 140.588 46.65C141.028 46.65 141.438 46.54 141.818 46.32C142.198 46.1 142.503 45.78 142.733 45.36C142.973 44.93 143.093 44.43 143.093 43.86ZM151.339 39.6C151.969 39.6 152.529 39.735 153.019 40.005C153.519 40.275 153.909 40.675 154.189 41.205C154.479 41.735 154.624 42.375 154.624 43.125V48H152.929V43.38C152.929 42.64 152.744 42.075 152.374 41.685C152.004 41.285 151.499 41.085 150.859 41.085C150.219 41.085 149.709 41.285 149.329 41.685C148.959 42.075 148.774 42.64 148.774 43.38V48H147.064V36.9H148.774V40.695C149.064 40.345 149.429 40.075 149.869 39.885C150.319 39.695 150.809 39.6 151.339 39.6ZM158.801 41.13V45.705C158.801 46.015 158.871 46.24 159.011 46.38C159.161 46.51 159.411 46.575 159.761 46.575H160.811V48H159.461C158.691 48 158.101 47.82 157.691 47.46C157.281 47.1 157.076 46.515 157.076 45.705V41.13H156.101V39.735H157.076V37.68H158.801V39.735H160.811V41.13H158.801ZM165.852 41.13H164.322V48H162.597V41.13H161.622V39.735H162.597V39.15C162.597 38.2 162.847 37.51 163.347 37.08C163.857 36.64 164.652 36.42 165.732 36.42V37.845C165.212 37.845 164.847 37.945 164.637 38.145C164.427 38.335 164.322 38.67 164.322 39.15V39.735H165.852V41.13ZM174.852 39.735V48H173.142V47.025C172.872 47.365 172.517 47.635 172.077 47.835C171.647 48.025 171.187 48.12 170.697 48.12C170.047 48.12 169.462 47.985 168.942 47.715C168.432 47.445 168.027 47.045 167.727 46.515C167.437 45.985 167.292 45.345 167.292 44.595V39.735H168.987V44.34C168.987 45.08 169.172 45.65 169.542 46.05C169.912 46.44 170.417 46.635 171.057 46.635C171.697 46.635 172.202 46.44 172.572 46.05C172.952 45.65 173.142 45.08 173.142 44.34V39.735H174.852ZM178.818 36.9V48H177.108V36.9H178.818ZM115.41 69.87H111.045L110.295 72H108.51L112.245 61.56H114.225L117.96 72H116.16L115.41 69.87ZM114.93 68.475L113.235 63.63L111.525 68.475H114.93ZM121.294 64.965C121.584 64.565 121.979 64.24 122.479 63.99C122.989 63.73 123.554 63.6 124.174 63.6C124.904 63.6 125.564 63.775 126.154 64.125C126.744 64.475 127.209 64.975 127.549 65.625C127.889 66.265 128.059 67 128.059 67.83C128.059 68.66 127.889 69.405 127.549 70.065C127.209 70.715 126.739 71.225 126.139 71.595C125.549 71.955 124.894 72.135 124.174 72.135C123.534 72.135 122.964 72.01 122.464 71.76C121.974 71.51 121.584 71.19 121.294 70.8V72H119.584V60.9H121.294V64.965ZM126.319 67.83C126.319 67.26 126.199 66.77 125.959 66.36C125.729 65.94 125.419 65.625 125.029 65.415C124.649 65.195 124.239 65.085 123.799 65.085C123.369 65.085 122.959 65.195 122.569 65.415C122.189 65.635 121.879 65.955 121.639 66.375C121.409 66.795 121.294 67.29 121.294 67.86C121.294 68.43 121.409 68.93 121.639 69.36C121.879 69.78 122.189 70.1 122.569 70.32C122.959 70.54 123.369 70.65 123.799 70.65C124.239 70.65 124.649 70.54 125.029 70.32C125.419 70.09 125.729 69.76 125.959 69.33C126.199 68.9 126.319 68.4 126.319 67.83ZM133.335 72.135C132.555 72.135 131.85 71.96 131.22 71.61C130.59 71.25 130.095 70.75 129.735 70.11C129.375 69.46 129.195 68.71 129.195 67.86C129.195 67.02 129.38 66.275 129.75 65.625C130.12 64.975 130.625 64.475 131.265 64.125C131.905 63.775 132.62 63.6 133.41 63.6C134.2 63.6 134.915 63.775 135.555 64.125C136.195 64.475 136.7 64.975 137.07 65.625C137.44 66.275 137.625 67.02 137.625 67.86C137.625 68.7 137.435 69.445 137.055 70.095C136.675 70.745 136.155 71.25 135.495 71.61C134.845 71.96 134.125 72.135 133.335 72.135ZM133.335 70.65C133.775 70.65 134.185 70.545 134.565 70.335C134.955 70.125 135.27 69.81 135.51 69.39C135.75 68.97 135.87 68.46 135.87 67.86C135.87 67.26 135.755 66.755 135.525 66.345C135.295 65.925 134.99 65.61 134.61 65.4C134.23 65.19 133.82 65.085 133.38 65.085C132.94 65.085 132.53 65.19 132.15 65.4C131.78 65.61 131.485 65.925 131.265 66.345C131.045 66.755 130.935 67.26 130.935 67.86C130.935 68.75 131.16 69.44 131.61 69.93C132.07 70.41 132.645 70.65 133.335 70.65ZM146.8 63.735V72H145.09V71.025C144.82 71.365 144.465 71.635 144.025 71.835C143.595 72.025 143.135 72.12 142.645 72.12C141.995 72.12 141.41 71.985 140.89 71.715C140.38 71.445 139.975 71.045 139.675 70.515C139.385 69.985 139.24 69.345 139.24 68.595V63.735H140.935V68.34C140.935 69.08 141.12 69.65 141.49 70.05C141.86 70.44 142.365 70.635 143.005 70.635C143.645 70.635 144.15 70.44 144.52 70.05C144.9 69.65 145.09 69.08 145.09 68.34V63.735H146.8ZM151.052 65.13V69.705C151.052 70.015 151.122 70.24 151.262 70.38C151.412 70.51 151.662 70.575 152.012 70.575H153.062V72H151.712C150.942 72 150.352 71.82 149.942 71.46C149.532 71.1 149.327 70.515 149.327 69.705V65.13H148.352V63.735H149.327V61.68H151.052V63.735H153.062V65.13H151.052ZM122.7 85.575L119.61 96H117.675L115.485 88.11L113.16 96L111.24 96.015L108.285 85.575H110.1L112.26 94.065L114.6 85.575H116.52L118.695 94.02L120.87 85.575H122.7ZM123.54 91.83C123.54 91 123.71 90.265 124.05 89.625C124.4 88.985 124.87 88.49 125.46 88.14C126.06 87.78 126.72 87.6 127.44 87.6C128.09 87.6 128.655 87.73 129.135 87.99C129.625 88.24 130.015 88.555 130.305 88.935V87.735H132.03V96H130.305V94.77C130.015 95.16 129.62 95.485 129.12 95.745C128.62 96.005 128.05 96.135 127.41 96.135C126.7 96.135 126.05 95.955 125.46 95.595C124.87 95.225 124.4 94.715 124.05 94.065C123.71 93.405 123.54 92.66 123.54 91.83ZM130.305 91.86C130.305 91.29 130.185 90.795 129.945 90.375C129.715 89.955 129.41 89.635 129.03 89.415C128.65 89.195 128.24 89.085 127.8 89.085C127.36 89.085 126.95 89.195 126.57 89.415C126.19 89.625 125.88 89.94 125.64 90.36C125.41 90.77 125.295 91.26 125.295 91.83C125.295 92.4 125.41 92.9 125.64 93.33C125.88 93.76 126.19 94.09 126.57 94.32C126.96 94.54 127.37 94.65 127.8 94.65C128.24 94.65 128.65 94.54 129.03 94.32C129.41 94.1 129.715 93.78 129.945 93.36C130.185 92.93 130.305 92.43 130.305 91.86ZM136.271 89.13V93.705C136.271 94.015 136.341 94.24 136.481 94.38C136.631 94.51 136.881 94.575 137.231 94.575H138.281V96H136.931C136.161 96 135.571 95.82 135.161 95.46C134.751 95.1 134.546 94.515 134.546 93.705V89.13H133.571V87.735H134.546V85.68H136.271V87.735H138.281V89.13H136.271ZM147.432 91.665C147.432 91.975 147.412 92.255 147.372 92.505H141.057C141.107 93.165 141.352 93.695 141.792 94.095C142.232 94.495 142.772 94.695 143.412 94.695C144.332 94.695 144.982 94.31 145.362 93.54H147.207C146.957 94.3 146.502 94.925 145.842 95.415C145.192 95.895 144.382 96.135 143.412 96.135C142.622 96.135 141.912 95.96 141.282 95.61C140.662 95.25 140.172 94.75 139.812 94.11C139.462 93.46 139.287 92.71 139.287 91.86C139.287 91.01 139.457 90.265 139.797 89.625C140.147 88.975 140.632 88.475 141.252 88.125C141.882 87.775 142.602 87.6 143.412 87.6C144.192 87.6 144.887 87.77 145.497 88.11C146.107 88.45 146.582 88.93 146.922 89.55C147.262 90.16 147.432 90.865 147.432 91.665ZM145.647 91.125C145.637 90.495 145.412 89.99 144.972 89.61C144.532 89.23 143.987 89.04 143.337 89.04C142.747 89.04 142.242 89.23 141.822 89.61C141.402 89.98 141.152 90.485 141.072 91.125H145.647ZM150.825 88.935C151.075 88.515 151.405 88.19 151.815 87.96C152.235 87.72 152.73 87.6 153.3 87.6V89.37H152.865C152.195 89.37 151.685 89.54 151.335 89.88C150.995 90.22 150.825 90.81 150.825 91.65V96H149.115V87.735H150.825V88.935Z" fill="white"/>
</svg>
