<svg width="216" height="207" viewBox="0 0 216 207" fill="none" xmlns="http://www.w3.org/2000/svg">
<path d="M197.728 45.9073L194.51 46.889L177.373 48.3582L172.532 55.7965L169.02 54.7226L155.382 42.8899L153.403 36.7363L150.753 30.1743L142.181 22.7755L132.069 20.8715L131.836 25.3252L141.743 34.628L146.591 40.1227L141.141 42.8635L136.704 41.6051L130.056 38.9368L130.282 33.7781L121.559 30.3258L118.663 42.455L109.872 44.3723L110.742 51.1385L122.196 53.26L124.175 42.4484L133.63 43.7925L138.025 46.2697H145.077L149.904 55.5725L162.701 68.0641L161.763 72.9197L151.445 71.6548L133.616 80.3185L120.779 95.1358L119.108 101.698H114.5L105.915 97.8898L97.5754 101.698L99.65 110.164L103.279 106.138L109.66 105.947L109.215 113.55L114.5 115.039L119.779 120.745L128.399 118.413L138.244 119.908L149.678 122.866L155.388 123.512L165.07 134.086L183.754 144.661L171.67 166.877L158.915 172.582L154.074 185.278L135.615 197.137L133.65 203.976C180.837 193.039 215.94 152.251 215.94 103.483C215.926 82.183 209.217 62.3586 197.728 45.9073Z" fill="white"/>
<path d="M120.772 157.576L112.939 143.602L120.128 129.186L112.939 127.117L104.867 119.317L86.9837 115.456L81.0477 103.505V110.6H78.4323L63.0205 90.4926V73.9755L51.7235 56.2989L33.7853 59.3756H21.701L15.6212 55.5412L23.3784 49.6248L15.6417 51.3444C6.3166 66.669 0.880371 84.4511 0.880371 103.498C0.880371 160.639 49.0191 206.982 108.407 206.982C112.98 206.982 117.465 206.593 121.902 206.079L120.779 193.542C120.779 193.542 125.715 174.923 125.715 174.29C125.708 173.651 120.772 157.576 120.772 157.576Z" fill="white"/>
<path d="M40.8357 33.3698L59.9378 30.807L68.7426 26.1621L78.6497 28.9095L94.4791 28.0662L99.9016 19.8636L107.81 21.1154L127.014 19.3827L132.307 13.7694L139.77 8.97302L150.327 10.5015L154.175 9.94152C140.269 3.64301 124.796 -0.000366211 108.398 -0.000366211C75.0209 -0.000366211 45.1764 14.639 25.4718 37.6259H25.5266L40.8357 33.3698ZM112.944 10.2907L123.927 4.47315L130.979 8.39325L120.77 15.8711L111.021 16.8132L106.632 14.0724L112.944 10.2907ZM80.4161 11.1406L85.2635 13.0842L91.6104 11.1406L95.0679 16.9054L80.4161 20.6081L73.3709 16.6419C73.3641 16.6419 80.2586 12.3726 80.4161 11.1406Z" fill="white"/>
</svg>
