<svg width="265" height="207" viewBox="0 0 265 207" fill="none" xmlns="http://www.w3.org/2000/svg">
<g clip-path="url(#clip0)">
<path d="M172.526 62.0963C166.364 52.9378 159.993 43.4671 154.367 34.1294C153.455 32.6151 151.15 31.9671 149.219 32.683C147.287 33.3981 146.461 35.2052 147.373 36.7192C153.072 46.1773 159.483 55.7082 165.684 64.9249C184.666 93.14 202.594 119.79 202.594 145.616C202.594 160.419 195.231 174.328 181.86 184.78C168.541 195.191 150.865 200.918 132.063 200.918C131.992 200.918 131.919 200.918 131.848 200.918C113.175 200.874 95.5211 195.011 82.139 184.408C68.708 173.766 61.3897 159.8 61.5326 145.083C61.7806 119.417 79.5877 92.9484 98.44 64.9258C111.331 45.7649 124.659 25.9536 132.063 6.16904C134.138 11.7135 136.725 17.4245 139.971 23.6247C140.781 25.1738 143.041 25.9128 145.017 25.2785C146.992 24.6426 147.937 22.8715 147.126 21.3224C143.962 15.2779 141.448 9.72655 139.443 4.35188C138.471 1.74884 135.503 -0.000404192 132.056 7.00561e-08C128.616 7.00561e-08 125.654 1.7452 124.685 4.34259C117.509 23.5818 104.337 43.1615 91.5987 62.0967C73.1439 89.5284 54.0611 117.894 53.7982 145.037C53.6399 161.379 61.7527 176.876 76.6414 188.673C91.4817 200.431 111.08 206.933 131.825 206.982C131.906 206.982 131.984 206.982 132.065 206.982C152.926 206.981 172.543 200.626 187.321 189.074C202.158 177.476 210.329 162.043 210.329 145.616C210.329 118.289 191.111 89.7224 172.526 62.0963Z" fill="white"/>
<path d="M185.246 152.391C183.17 152.004 181.084 153.015 180.593 154.644C176.296 168.907 161.764 180.301 143.572 183.67C141.493 184.055 140.206 185.687 140.697 187.317C141.117 188.713 142.705 189.653 144.457 189.653C144.752 189.653 145.051 189.626 145.349 189.571C166.367 185.679 183.156 172.516 188.121 156.038C188.611 154.409 187.324 152.776 185.246 152.391Z" fill="white"/>
</g>
<defs>
<clipPath id="clip0">
<rect width="264" height="206.982" fill="white" transform="translate(0.0625)"/>
</clipPath>
</defs>
</svg>
