<svg width="262" height="292" viewBox="0 0 262 292" fill="none" xmlns="http://www.w3.org/2000/svg">
<path d="M226.593 134.878C234.266 128.869 239.346 118.874 239.346 107.608C239.346 89.1773 225.971 74.2711 209.434 74.2711C192.897 74.2711 179.522 89.1773 179.522 107.608C179.522 118.874 184.551 128.869 192.275 134.878C185.691 137.42 179.678 141.349 174.598 146.433C167.599 139.789 159.357 134.705 150.336 131.7C161.275 124.305 168.636 110.843 168.636 95.5327C168.636 72.1912 151.684 53.2984 130.741 53.2984C109.797 53.2984 92.8457 72.2489 92.8457 95.5327C92.8457 110.843 100.155 124.305 111.145 131.7C102.229 134.705 94.0898 139.731 87.1433 146.26C82.0629 141.291 76.1531 137.42 69.6731 134.936C77.3455 128.927 82.4258 118.932 82.4258 107.666C82.4258 89.2351 69.051 74.3289 52.514 74.3289C35.977 74.3289 22.6023 89.2351 22.6023 107.666C22.6023 118.932 27.6308 128.927 35.355 134.936C14.7744 142.851 0 164.633 0 190.228V194.041C0 194.156 0.10368 194.272 0.207361 194.272H63.6078C63.245 197.45 63.0376 200.743 63.0376 204.036V207.965C63.0376 224.951 75.3755 238.702 90.6165 238.702H170.969C186.21 238.702 198.548 224.951 198.548 207.965V204.036C198.548 200.743 198.34 197.45 197.977 194.272H261.793C261.896 194.272 262 194.156 262 194.041V190.228C261.896 164.575 247.174 142.793 226.593 134.878ZM187.817 107.55C187.817 94.2616 197.511 83.4575 209.434 83.4575C221.357 83.4575 231.051 94.2616 231.051 107.55C231.051 120.665 221.565 131.354 209.849 131.643C209.693 131.643 209.59 131.643 209.434 131.643C209.279 131.643 209.175 131.643 209.019 131.643C197.252 131.412 187.817 120.723 187.817 107.55ZM101.036 95.5327C101.036 77.3332 114.307 62.5426 130.637 62.5426C146.967 62.5426 160.238 77.3332 160.238 95.5327C160.238 113.097 147.848 127.483 132.348 128.465C131.778 128.465 131.207 128.465 130.637 128.465C130.067 128.465 129.497 128.465 128.926 128.465C113.426 127.483 101.036 113.097 101.036 95.5327ZM30.7412 107.55C30.7412 94.2616 40.4353 83.4575 52.3585 83.4575C64.2818 83.4575 73.9759 94.2616 73.9759 107.55C73.9759 120.665 64.4891 131.354 52.7733 131.643C52.6177 131.643 52.514 131.643 52.3585 131.643C52.203 131.643 52.0993 131.643 51.9438 131.643C40.2279 131.412 30.7412 120.723 30.7412 107.55ZM65.0594 184.97H8.3981C10.7309 160.357 29.3934 141.06 52.0475 140.887C52.1512 140.887 52.2548 140.887 52.3585 140.887C52.4622 140.887 52.5659 140.887 52.6696 140.887C63.4523 140.945 73.3019 145.393 80.9224 152.615C73.4575 161.628 67.9106 172.721 65.0594 184.97ZM190.15 207.965C190.15 219.809 181.492 229.457 170.865 229.457H90.5129C79.8856 229.457 71.2283 219.809 71.2283 207.965V204.036C71.2283 168.157 96.941 138.807 128.926 137.767C129.497 137.825 130.119 137.825 130.689 137.825C131.259 137.825 131.881 137.825 132.452 137.767C164.437 138.807 190.15 168.157 190.15 204.036V207.965V207.965ZM196.319 184.97C193.467 172.779 188.024 161.86 180.611 152.846C188.283 145.451 198.237 141.002 209.123 140.887C209.227 140.887 209.33 140.887 209.434 140.887C209.538 140.887 209.641 140.887 209.745 140.887C232.399 141.06 251.062 160.357 253.395 184.97H196.319Z" fill="white"/>
</svg>
