<svg width="236" height="207" viewBox="0 0 236 207" fill="none" xmlns="http://www.w3.org/2000/svg">
<g clip-path="url(#clip0)">
<path d="M229.854 148.16C225.452 142.486 217.984 141.1 209.872 144.448L205.572 146.109C212.352 133.434 213.193 119.305 209.818 105.959C205.942 90.6313 196.58 75.7823 181.992 61.8247C180.702 60.5904 178.516 60.5071 177.108 61.6388C175.701 62.77 175.606 64.6876 176.896 65.9223C190.653 79.0846 199.459 92.9968 203.069 107.272C206.872 122.309 204.66 137.816 194.956 150.208L151.932 166.825L151.967 162.563C151.968 162.455 151.962 162.347 151.95 162.24C150.957 153.48 143.323 146.501 133.385 145.268C133.356 145.264 133.326 145.261 133.296 145.258L95.0564 141.396C80.3521 139.56 76.565 131.831 56.6507 127.424C55.2748 117.183 57.1088 106.28 62.1358 95.3486C69.7067 78.8865 84.518 62.8925 105.051 48.9713C112.704 53.7307 146.847 54.323 154.487 48.1834C158.402 50.7907 162.138 53.4776 165.618 56.1973C166.276 56.7124 167.098 56.9655 167.916 56.9655C168.867 56.9655 169.815 56.6231 170.498 55.9507C171.767 54.7006 171.641 52.7843 170.216 51.6704C166.401 48.6895 162.298 45.7483 157.994 42.9057C159.003 39.1546 157.591 34.7643 153.867 32.151C164.689 17.7531 167.837 8.32939 163.489 3.39212C160.503 0.000471242 156.787 1.59219 155.201 2.27222C152.512 3.42365 151.046 3.4843 148.571 2.06441C143.851 -0.644787 138.889 -0.732115 134.017 2.06441C131.511 3.50249 129.538 3.50249 127.033 2.06441C122.312 -0.644787 117.352 -0.732115 112.479 2.06441C109.976 3.50128 108.504 3.41233 105.858 2.25847C104.273 1.56753 100.562 -0.0504703 97.5566 3.34158C93.3063 8.13978 96.1498 17.2664 106.242 31.1746C105.624 31.4677 105.035 31.8118 104.485 32.2047C100.471 28.4868 93.8949 24.6092 84.3848 25.5407C76.4968 26.3149 70.6802 24.0286 67.1891 21.9748C65.6035 21.0433 63.4564 21.4145 62.3935 22.8044C61.3306 24.1952 61.7542 26.0784 63.3393 27.0107C67.7897 29.6277 75.1859 32.5411 85.1518 31.5664C92.4992 30.8435 97.4847 34.1369 100.588 37.4885C100.546 37.6179 100.507 37.7481 100.47 37.8782C97.823 37.9146 93.8668 38.1313 89.51 38.9262C79.0319 40.8381 71.2541 45.2057 67.0167 51.558C66.0529 53.003 66.6069 54.8603 68.2543 55.7061C69.9022 56.5515 72.0192 56.0651 72.9831 54.6202C79.2859 45.1722 94.6706 44.0167 100.781 43.9443C100.808 44.011 100.838 44.0769 100.866 44.1432C79.0601 58.8972 63.8786 75.3509 55.7256 93.0793C50.5723 104.285 48.5137 115.512 49.5587 126.181C46.2441 125.751 42.8912 125.52 39.5222 125.499V123.666C39.5222 118.815 35.0226 114.868 29.4918 114.868H13.6245C8.09367 114.868 3.59399 118.815 3.59399 123.666V194.274C3.59399 199.126 8.09367 203.072 13.6245 203.072H29.4913C35.0221 203.072 39.5218 199.125 39.5218 194.274V193.41L74.134 204.71C78.7853 206.228 83.6602 206.998 88.6231 206.998H140.196C148.08 206.998 155.768 205.042 162.428 201.34C231.227 163.086 227.049 165.466 227.446 165.157C232.988 160.842 234.024 153.535 229.854 148.16V148.16ZM148.001 44.5908C135.361 47.3901 123.072 47.3901 110.429 44.5908C105.004 43.388 106.576 34.9018 112.406 36.1842C123.717 38.6747 134.713 38.6747 146.024 36.1842C151.753 34.9228 153.513 43.369 148.001 44.5908ZM102.701 7.65381C102.728 7.66554 102.755 7.67766 102.781 7.68898C107.459 9.72826 111.558 9.83903 116.264 7.13874C122.153 3.7576 122.792 9.17882 130.524 9.17882C134.247 9.17882 136.301 7.99989 137.801 7.13874C140.307 5.70025 142.281 5.70106 144.787 7.13874C149.513 9.85157 153.513 9.71775 158.327 7.6813C159.038 9.93 157.429 16.6336 147.179 30.0183C142.09 29.9423 134.704 34.3269 113.794 30.2455C103.567 16.6878 101.986 9.91909 102.701 7.65381V7.65381ZM223.044 160.474L158.728 196.221C153.177 199.306 146.769 200.937 140.196 200.937H88.6236C84.4867 200.937 80.4231 200.295 76.5456 199.029L39.5218 186.942V154.293C39.5218 152.618 37.9744 151.261 36.0657 151.261C34.1569 151.261 32.6095 152.618 32.6095 154.293V194.276C32.6095 195.784 31.2106 197.01 29.4918 197.01H13.6245C11.9052 197.01 10.5067 195.783 10.5067 194.276V123.668C10.5067 122.16 11.9052 120.933 13.6245 120.933H29.4913C31.2106 120.933 32.6091 122.16 32.6091 123.668V140.12C32.6091 141.795 34.1565 143.152 36.0652 143.152C37.9739 143.152 39.5213 141.795 39.5213 140.12V131.564C68.1137 131.756 74.5424 144.975 94.1313 147.405C94.1608 147.409 94.1903 147.412 94.2198 147.415L132.458 151.277C139.153 152.124 144.306 156.801 145.052 162.689L145.004 168.456H109.344C107.435 168.456 105.887 169.813 105.887 171.487C105.887 173.162 107.434 174.519 109.344 174.519H148.435C148.872 174.519 149.376 174.434 149.815 174.267C149.885 174.239 212.624 150.011 212.697 149.982C217.219 148.22 221.342 147.968 224.138 151.572C226.312 154.372 225.831 158.159 223.044 160.474Z" fill="#F4F4F4"/>
<path d="M130.126 137.55C132.035 137.55 133.583 136.193 133.583 134.518V129.493C143.286 128.112 148.947 121.223 150.179 114.796C151.718 106.768 146.923 99.7862 137.966 97.0091C136.383 96.5182 134.926 96.0489 133.582 95.5956V76.2654C137.671 76.8601 140.126 78.7162 140.305 78.8549C141.709 79.9748 143.882 79.8919 145.17 78.6669C146.464 77.4362 146.376 75.5183 144.973 74.383C144.729 74.1857 140.496 70.8426 133.582 70.1435V65.8321C133.582 64.1575 132.035 62.8003 130.126 62.8003C128.217 62.8003 126.669 64.1575 126.669 65.8321V70.3885C125.836 70.5284 124.982 70.7063 124.105 70.938C118.242 72.4868 113.86 76.8965 112.667 82.4455C111.585 87.481 113.405 92.3237 117.417 95.0834C119.72 96.6678 122.62 98.1184 126.669 99.6693V123.645C122.672 123.496 120.212 122.838 115.919 120.375C114.322 119.459 112.18 119.851 111.135 121.252C110.09 122.653 110.538 124.532 112.135 125.449C117.777 128.687 121.549 129.531 126.669 129.706V134.518C126.669 136.193 128.217 137.55 130.126 137.55V137.55ZM121.683 90.3127C119.71 88.9551 118.858 86.3708 119.46 83.5686C120.019 80.9698 122.056 77.8122 126.099 76.7441C126.291 76.6931 126.48 76.6495 126.669 76.605V92.981C124.6 92.0746 122.977 91.2026 121.683 90.3127V90.3127ZM135.662 102.726C144.263 105.392 143.73 111.87 143.362 113.791C142.599 117.77 139.27 122.018 133.582 123.296V102.069C134.255 102.285 134.942 102.503 135.662 102.726V102.726Z" fill="#F4F4F4"/>
</g>
<defs>
<clipPath id="clip0">
<rect width="236" height="207" fill="white"/>
</clipPath>
</defs>
</svg>
