<svg width="539" height="152" viewBox="0 0 539 152" fill="none" xmlns="http://www.w3.org/2000/svg">
<path d="M229.292 60.9841C230.42 60.9841 231.344 60.9481 232.064 60.8762V61.5962C231.464 61.8361 230.876 62.3041 230.3 63.0001C229.748 63.6721 229.28 64.6321 228.896 65.8802L222.56 86.4362C222.296 86.4122 221.876 86.4002 221.3 86.4002C220.724 86.4002 220.304 86.4122 220.04 86.4362L214.748 70.3801L209.42 86.4362C209.156 86.4122 208.736 86.4002 208.16 86.4002C207.584 86.4002 207.164 86.4122 206.9 86.4362L198.836 63.9002C198.548 63.1082 198.2 62.5322 197.792 62.1721C197.384 61.8121 196.976 61.6201 196.568 61.5962V60.8762C198.008 60.9481 199.796 60.9841 201.932 60.9841C203.948 60.9841 205.424 60.9481 206.36 60.8762V61.5962C205.52 61.7162 205.1 62.1841 205.1 63.0001C205.1 63.3842 205.208 63.9242 205.424 64.6201L210.68 79.8482L214.316 69.1201L212.48 63.5402C212.24 62.8441 211.952 62.3641 211.616 62.1002C211.304 61.8121 210.932 61.6441 210.5 61.5962V60.8762C211.844 60.9481 213.56 60.9841 215.648 60.9841C218 60.9841 219.728 60.9481 220.832 60.8762V61.5962C219.968 61.6201 219.344 61.7281 218.96 61.9202C218.576 62.0881 218.384 62.4241 218.384 62.9282C218.384 63.3602 218.504 63.9242 218.744 64.6201L223.676 79.6682L227.096 68.7961C227.648 66.9962 227.924 65.6042 227.924 64.6201C227.924 63.5882 227.66 62.8442 227.132 62.3882C226.628 61.9081 225.86 61.6441 224.828 61.5962V60.8762C226.46 60.9481 227.948 60.9841 229.292 60.9841ZM251.588 83.3402C252.284 84.8282 253.04 85.5962 253.856 85.6442V86.3642C252.704 86.2922 251.132 86.2562 249.14 86.2562C246.572 86.2562 244.676 86.2922 243.452 86.3642V85.6442C244.244 85.5962 244.832 85.4762 245.216 85.2842C245.6 85.0682 245.792 84.7202 245.792 84.2402C245.792 83.8082 245.636 83.2682 245.324 82.6202L243.524 78.5162H235.964L235.532 79.4882C234.86 81.0722 234.524 82.3082 234.524 83.1962C234.524 84.0122 234.788 84.6122 235.316 84.9962C235.844 85.3802 236.624 85.5962 237.656 85.6442V86.3642C236.288 86.2922 234.908 86.2562 233.516 86.2562C232.22 86.2562 231.248 86.2922 230.6 86.3642V85.6442C231.176 85.5242 231.704 85.1642 232.184 84.5642C232.688 83.9402 233.216 83.0162 233.768 81.7922L241.364 64.4042C241.556 64.4282 241.832 64.4402 242.192 64.4402C242.576 64.4402 242.852 64.4282 243.02 64.4042L251.588 83.3402ZM243.2 77.7962L239.744 69.9122L236.288 77.7962H243.2ZM273.954 64.4761C273.786 66.3002 273.702 67.9322 273.702 69.3721C273.702 70.7162 273.738 71.7722 273.81 72.5402H272.982C272.646 70.7162 272.238 69.2882 271.758 68.2562C271.302 67.2242 270.702 66.4802 269.958 66.0242C269.238 65.5442 268.302 65.3041 267.15 65.3041H266.034V82.1882C266.034 83.1962 266.13 83.9282 266.322 84.3842C266.514 84.8402 266.85 85.1522 267.33 85.3202C267.81 85.4882 268.59 85.5962 269.67 85.6442V86.3642C268.374 86.2922 266.214 86.2562 263.19 86.2562C260.142 86.2562 258.042 86.2922 256.89 86.3642V85.6442C257.97 85.5962 258.75 85.4882 259.23 85.3202C259.71 85.1522 260.046 84.8402 260.238 84.3842C260.43 83.9282 260.526 83.1962 260.526 82.1882V65.3041H259.41C258.258 65.3041 257.31 65.5442 256.566 66.0242C255.846 66.4802 255.246 67.2242 254.766 68.2562C254.31 69.2882 253.914 70.7162 253.578 72.5402H252.75C252.822 71.7722 252.858 70.7162 252.858 69.3721C252.858 67.9322 252.774 66.3002 252.606 64.4761C254.694 64.5482 258.222 64.5842 263.19 64.5842C268.254 64.5842 271.842 64.5482 273.954 64.4761ZM294.993 81.6842C294.993 83.0522 295.077 84.6122 295.245 86.3642C293.685 86.2922 291.057 86.2562 287.361 86.2562C282.417 86.2562 278.697 86.2922 276.201 86.3642V85.6442C277.017 85.5962 277.605 85.5002 277.965 85.3562C278.325 85.2122 278.565 84.9362 278.685 84.5282C278.829 84.1202 278.901 83.4602 278.901 82.5482V68.2921C278.901 67.3802 278.829 66.7201 278.685 66.3121C278.565 65.9042 278.313 65.6282 277.929 65.4841C277.569 65.3401 276.993 65.2442 276.201 65.1962V64.4761C278.697 64.5482 282.417 64.5842 287.361 64.5842C290.721 64.5842 293.109 64.5482 294.525 64.4761C294.357 66.0842 294.273 67.5242 294.273 68.7961C294.273 69.7321 294.309 70.4761 294.381 71.0281H293.553C293.193 68.9642 292.569 67.5001 291.681 66.6361C290.793 65.7481 289.569 65.3041 288.009 65.3041H286.677C286.053 65.3041 285.585 65.3641 285.273 65.4841C284.961 65.5801 284.733 65.7961 284.589 66.1321C284.469 66.4441 284.409 66.9481 284.409 67.6441V74.9882H286.101C287.205 74.9882 288.033 74.6042 288.585 73.8362C289.161 73.0442 289.545 72.1322 289.737 71.1002H290.565C290.493 71.9162 290.457 72.8522 290.457 73.9082V75.3482C290.457 76.4282 290.529 77.8442 290.673 79.5962H289.845C289.677 78.4682 289.293 77.5442 288.693 76.8242C288.117 76.0802 287.253 75.7082 286.101 75.7082H284.409V83.1962C284.409 83.8922 284.469 84.4082 284.589 84.7442C284.733 85.0562 284.961 85.2722 285.273 85.3922C285.585 85.4882 286.053 85.5362 286.677 85.5362H288.225C289.929 85.5362 291.261 85.0442 292.221 84.0602C293.205 83.0762 293.889 81.4202 294.273 79.0922H295.101C295.029 79.7642 294.993 80.6282 294.993 81.6842ZM321.43 84.8522C320.854 85.5242 320.206 86.0282 319.486 86.3642C318.766 86.7002 317.866 86.8682 316.786 86.8682C315.418 86.8682 314.362 86.6042 313.618 86.0762C312.874 85.5482 312.394 84.8402 312.178 83.9522L311.134 79.7042C310.87 78.3602 310.462 77.4722 309.91 77.0402C309.382 76.5842 308.59 76.3562 307.534 76.3562H306.346V82.5482C306.346 83.4602 306.406 84.1202 306.526 84.5282C306.67 84.9362 306.922 85.2122 307.282 85.3562C307.666 85.5002 308.254 85.5962 309.046 85.6442V86.3642C307.678 86.2922 305.722 86.2562 303.178 86.2562C300.946 86.2562 299.266 86.2922 298.138 86.3642V85.6442C298.954 85.5962 299.542 85.5002 299.902 85.3562C300.262 85.2122 300.502 84.9362 300.622 84.5282C300.766 84.1202 300.838 83.4602 300.838 82.5482V68.2921C300.838 67.3802 300.766 66.7201 300.622 66.3121C300.502 65.9042 300.262 65.6282 299.902 65.4841C299.542 65.3401 298.954 65.2442 298.138 65.1962V64.4761C299.266 64.5482 300.874 64.5842 302.962 64.5842L307.066 64.5482C307.546 64.5241 308.086 64.5121 308.686 64.5121C311.902 64.5121 314.302 65.0041 315.886 65.9881C317.494 66.9481 318.298 68.2922 318.298 70.0202C318.298 71.5082 317.662 72.8162 316.39 73.9441C315.118 75.0722 312.994 75.7922 310.018 76.1042C310.354 76.1042 310.702 76.1402 311.062 76.2122C312.79 76.4042 314.146 76.7882 315.13 77.3642C316.138 77.9402 316.798 78.8522 317.11 80.1002L317.866 83.3042C318.034 83.9762 318.238 84.4562 318.478 84.7442C318.718 85.0322 319.018 85.1762 319.378 85.1762C319.882 85.1762 320.398 84.9122 320.926 84.3842L321.43 84.8522ZM308.218 65.1962C307.69 65.1962 307.294 65.2802 307.03 65.4481C306.766 65.6162 306.586 65.9162 306.49 66.3481C306.394 66.7801 306.346 67.4281 306.346 68.2921V75.6362H307.894C309.67 75.6362 310.882 75.1802 311.53 74.2682C312.202 73.3562 312.538 72.0722 312.538 70.4162C312.538 68.6641 312.202 67.3561 311.53 66.4921C310.882 65.6282 309.778 65.1962 308.218 65.1962ZM349.39 60.8762C349.222 62.9162 349.138 64.7401 349.138 66.3481C349.138 67.4762 349.174 68.3882 349.246 69.0842H348.418C347.938 66.3721 347.218 64.4641 346.258 63.3601C345.298 62.2561 343.954 61.7041 342.226 61.7041H341.038C340.294 61.7041 339.754 61.7641 339.418 61.8842C339.082 62.0042 338.854 62.2442 338.734 62.6042C338.614 62.9402 338.554 63.4922 338.554 64.2602V73.3322H339.814C341.086 73.3322 342.046 72.8642 342.694 71.9282C343.366 70.9922 343.834 69.8762 344.098 68.5802H344.926C344.854 69.5882 344.818 70.7162 344.818 71.9642V73.6921C344.818 74.9161 344.89 76.6202 345.034 78.8042H344.206C343.702 75.6362 342.238 74.0522 339.814 74.0522H338.554V82.3322C338.554 83.2922 338.65 84.0002 338.842 84.4562C339.058 84.8882 339.418 85.1762 339.922 85.3202C340.45 85.4642 341.278 85.5482 342.406 85.5722V86.3642C339.454 86.2922 337.258 86.2562 335.818 86.2562C334.618 86.2562 333.106 86.2802 331.282 86.3282L330.13 86.3642V85.6442C330.922 85.5962 331.498 85.5002 331.858 85.3562C332.242 85.2122 332.494 84.9362 332.614 84.5282C332.758 84.1202 332.83 83.4602 332.83 82.5482V64.6921C332.83 63.7801 332.758 63.1201 332.614 62.7122C332.494 62.3042 332.242 62.0282 331.858 61.8842C331.498 61.7401 330.922 61.6441 330.13 61.5962V60.8762C332.722 60.9481 336.634 60.9841 341.866 60.9841C345.394 60.9841 347.902 60.9481 349.39 60.8762ZM362.343 65.1962C361.527 65.2442 360.939 65.3401 360.579 65.4841C360.219 65.6282 359.967 65.9042 359.823 66.3121C359.703 66.7201 359.643 67.3802 359.643 68.2921V82.5482C359.643 83.4602 359.703 84.1202 359.823 84.5282C359.967 84.9362 360.219 85.2122 360.579 85.3562C360.939 85.5002 361.527 85.5962 362.343 85.6442V86.3642C361.119 86.2922 359.343 86.2562 357.015 86.2562C354.495 86.2562 352.635 86.2922 351.435 86.3642V85.6442C352.251 85.5962 352.839 85.5002 353.199 85.3562C353.559 85.2122 353.799 84.9362 353.919 84.5282C354.063 84.1202 354.135 83.4602 354.135 82.5482V68.2921C354.135 67.3802 354.063 66.7201 353.919 66.3121C353.799 65.9042 353.547 65.6282 353.163 65.4841C352.803 65.3401 352.227 65.2442 351.435 65.1962V64.4761C352.611 64.5482 354.471 64.5842 357.015 64.5842C359.343 64.5842 361.119 64.5482 362.343 64.4761V65.1962ZM375.702 65.1962C374.886 65.2442 374.298 65.3401 373.938 65.4841C373.578 65.6282 373.326 65.9042 373.182 66.3121C373.062 66.7201 373.002 67.3802 373.002 68.2921V82.9802C373.002 83.7242 373.062 84.2762 373.182 84.6362C373.326 84.9962 373.554 85.2362 373.866 85.3562C374.178 85.4762 374.646 85.5362 375.27 85.5362H376.674C378.258 85.5362 379.59 84.9722 380.67 83.8442C381.75 82.6922 382.482 80.8442 382.866 78.3002H383.694C383.622 79.0922 383.586 80.0762 383.586 81.2522C383.586 82.7402 383.67 84.4442 383.838 86.3642C382.278 86.2922 379.65 86.2562 375.954 86.2562C371.01 86.2562 367.29 86.2922 364.794 86.3642V85.6442C365.61 85.5962 366.198 85.5002 366.558 85.3562C366.918 85.2122 367.158 84.9362 367.278 84.5282C367.422 84.1202 367.494 83.4602 367.494 82.5482V68.2921C367.494 67.3802 367.422 66.7201 367.278 66.3121C367.158 65.9042 366.906 65.6282 366.522 65.4841C366.162 65.3401 365.586 65.2442 364.794 65.1962V64.4761C366.018 64.5482 367.914 64.5842 370.482 64.5842C372.738 64.5842 374.478 64.5482 375.702 64.4761V65.1962ZM404.489 64.4761C404.321 66.3002 404.237 67.9322 404.237 69.3721C404.237 70.7162 404.273 71.7722 404.345 72.5402H403.517C403.181 70.7162 402.773 69.2882 402.293 68.2562C401.837 67.2242 401.237 66.4802 400.493 66.0242C399.773 65.5442 398.837 65.3041 397.685 65.3041H396.569V82.1882C396.569 83.1962 396.665 83.9282 396.857 84.3842C397.049 84.8402 397.385 85.1522 397.865 85.3202C398.345 85.4882 399.125 85.5962 400.205 85.6442V86.3642C398.909 86.2922 396.749 86.2562 393.725 86.2562C390.677 86.2562 388.577 86.2922 387.425 86.3642V85.6442C388.505 85.5962 389.285 85.4882 389.765 85.3202C390.245 85.1522 390.581 84.8402 390.773 84.3842C390.965 83.9282 391.061 83.1962 391.061 82.1882V65.3041H389.945C388.793 65.3041 387.845 65.5442 387.101 66.0242C386.381 66.4802 385.781 67.2242 385.301 68.2562C384.845 69.2882 384.449 70.7162 384.113 72.5402H383.285C383.357 71.7722 383.393 70.7162 383.393 69.3721C383.393 67.9322 383.309 66.3002 383.141 64.4761C385.229 64.5482 388.757 64.5842 393.725 64.5842C398.789 64.5842 402.377 64.5482 404.489 64.4761ZM430.028 84.8522C429.452 85.5242 428.804 86.0282 428.084 86.3642C427.364 86.7002 426.464 86.8682 425.384 86.8682C424.016 86.8682 422.96 86.6042 422.216 86.0762C421.472 85.5482 420.992 84.8402 420.776 83.9522L419.732 79.7042C419.468 78.3602 419.06 77.4722 418.508 77.0402C417.98 76.5842 417.188 76.3562 416.132 76.3562H414.944V82.5482C414.944 83.4602 415.004 84.1202 415.124 84.5282C415.268 84.9362 415.52 85.2122 415.88 85.3562C416.264 85.5002 416.852 85.5962 417.644 85.6442V86.3642C416.276 86.2922 414.32 86.2562 411.776 86.2562C409.544 86.2562 407.864 86.2922 406.736 86.3642V85.6442C407.552 85.5962 408.14 85.5002 408.5 85.3562C408.86 85.2122 409.1 84.9362 409.22 84.5282C409.364 84.1202 409.436 83.4602 409.436 82.5482V68.2921C409.436 67.3802 409.364 66.7201 409.22 66.3121C409.1 65.9042 408.86 65.6282 408.5 65.4841C408.14 65.3401 407.552 65.2442 406.736 65.1962V64.4761C407.864 64.5482 409.472 64.5842 411.56 64.5842L415.664 64.5482C416.144 64.5241 416.684 64.5121 417.284 64.5121C420.5 64.5121 422.9 65.0041 424.484 65.9881C426.092 66.9481 426.896 68.2922 426.896 70.0202C426.896 71.5082 426.26 72.8162 424.988 73.9441C423.716 75.0722 421.592 75.7922 418.616 76.1042C418.952 76.1042 419.3 76.1402 419.66 76.2122C421.388 76.4042 422.744 76.7882 423.728 77.3642C424.736 77.9402 425.396 78.8522 425.708 80.1002L426.464 83.3042C426.632 83.9762 426.836 84.4562 427.076 84.7442C427.316 85.0322 427.616 85.1762 427.976 85.1762C428.48 85.1762 428.996 84.9122 429.524 84.3842L430.028 84.8522ZM416.816 65.1962C416.288 65.1962 415.892 65.2802 415.628 65.4481C415.364 65.6162 415.184 65.9162 415.088 66.3481C414.992 66.7801 414.944 67.4281 414.944 68.2921V75.6362H416.492C418.268 75.6362 419.48 75.1802 420.128 74.2682C420.8 73.3562 421.136 72.0722 421.136 70.4162C421.136 68.6641 420.8 67.3561 420.128 66.4921C419.48 65.6282 418.376 65.1962 416.816 65.1962ZM450.08 83.3402C450.776 84.8282 451.532 85.5962 452.348 85.6442V86.3642C451.196 86.2922 449.624 86.2562 447.632 86.2562C445.064 86.2562 443.168 86.2922 441.944 86.3642V85.6442C442.736 85.5962 443.324 85.4762 443.708 85.2842C444.092 85.0682 444.284 84.7202 444.284 84.2402C444.284 83.8082 444.128 83.2682 443.816 82.6202L442.016 78.5162H434.456L434.024 79.4882C433.352 81.0722 433.016 82.3082 433.016 83.1962C433.016 84.0122 433.28 84.6122 433.808 84.9962C434.336 85.3802 435.116 85.5962 436.148 85.6442V86.3642C434.78 86.2922 433.4 86.2562 432.008 86.2562C430.712 86.2562 429.74 86.2922 429.092 86.3642V85.6442C429.668 85.5242 430.196 85.1642 430.676 84.5642C431.18 83.9402 431.708 83.0162 432.26 81.7922L439.856 64.4042C440.048 64.4282 440.324 64.4402 440.684 64.4402C441.068 64.4402 441.344 64.4282 441.512 64.4042L450.08 83.3402ZM441.692 77.7962L438.236 69.9122L434.78 77.7962H441.692ZM472.446 64.4761C472.278 66.3002 472.194 67.9322 472.194 69.3721C472.194 70.7162 472.23 71.7722 472.302 72.5402H471.474C471.138 70.7162 470.73 69.2882 470.25 68.2562C469.794 67.2242 469.194 66.4802 468.45 66.0242C467.73 65.5442 466.794 65.3041 465.642 65.3041H464.526V82.1882C464.526 83.1962 464.622 83.9282 464.814 84.3842C465.006 84.8402 465.342 85.1522 465.822 85.3202C466.302 85.4882 467.082 85.5962 468.162 85.6442V86.3642C466.866 86.2922 464.706 86.2562 461.682 86.2562C458.634 86.2562 456.534 86.2922 455.382 86.3642V85.6442C456.462 85.5962 457.242 85.4882 457.722 85.3202C458.202 85.1522 458.538 84.8402 458.73 84.3842C458.922 83.9282 459.018 83.1962 459.018 82.1882V65.3041H457.902C456.75 65.3041 455.802 65.5442 455.058 66.0242C454.338 66.4802 453.738 67.2242 453.258 68.2562C452.802 69.2882 452.406 70.7162 452.07 72.5402H451.242C451.314 71.7722 451.35 70.7162 451.35 69.3721C451.35 67.9322 451.266 66.3002 451.098 64.4761C453.186 64.5482 456.714 64.5842 461.682 64.5842C466.746 64.5842 470.334 64.5482 472.446 64.4761ZM485.601 65.1962C484.785 65.2442 484.197 65.3401 483.837 65.4841C483.477 65.6282 483.225 65.9042 483.081 66.3121C482.961 66.7201 482.901 67.3802 482.901 68.2921V82.5482C482.901 83.4602 482.961 84.1202 483.081 84.5282C483.225 84.9362 483.477 85.2122 483.837 85.3562C484.197 85.5002 484.785 85.5962 485.601 85.6442V86.3642C484.377 86.2922 482.601 86.2562 480.273 86.2562C477.753 86.2562 475.893 86.2922 474.693 86.3642V85.6442C475.509 85.5962 476.097 85.5002 476.457 85.3562C476.817 85.2122 477.057 84.9362 477.177 84.5282C477.321 84.1202 477.393 83.4602 477.393 82.5482V68.2921C477.393 67.3802 477.321 66.7201 477.177 66.3121C477.057 65.9042 476.805 65.6282 476.421 65.4841C476.061 65.3401 475.485 65.2442 474.693 65.1962V64.4761C475.869 64.5482 477.729 64.5842 480.273 64.5842C482.601 64.5842 484.377 64.5482 485.601 64.4761V65.1962ZM500.192 63.9721C502.616 63.9721 504.74 64.4161 506.564 65.3041C508.388 66.1681 509.804 67.4522 510.812 69.1562C511.82 70.8362 512.324 72.8522 512.324 75.2042C512.324 77.5082 511.808 79.5482 510.776 81.3242C509.744 83.0762 508.304 84.4442 506.456 85.4282C504.608 86.3882 502.508 86.8682 500.156 86.8682C497.732 86.8682 495.608 86.4362 493.784 85.5722C491.96 84.6842 490.544 83.4002 489.536 81.7202C488.528 80.0162 488.024 77.9882 488.024 75.6362C488.024 73.3322 488.54 71.3042 489.572 69.5522C490.604 67.7762 492.044 66.4082 493.892 65.4481C495.74 64.4641 497.84 63.9721 500.192 63.9721ZM500.048 64.6201C498.8 64.6201 497.696 65.0882 496.736 66.0242C495.8 66.9362 495.068 68.2202 494.54 69.8761C494.036 71.5082 493.784 73.3802 493.784 75.4922C493.784 77.6282 494.072 79.5122 494.648 81.1442C495.224 82.7762 496.004 84.0362 496.988 84.9242C497.996 85.7882 499.1 86.2202 500.3 86.2202C501.548 86.2202 502.64 85.7642 503.576 84.8522C504.536 83.9162 505.268 82.6322 505.772 81.0002C506.3 79.3442 506.564 77.4602 506.564 75.3482C506.564 73.2122 506.276 71.3282 505.7 69.6961C505.124 68.0642 504.332 66.8162 503.324 65.9521C502.34 65.0641 501.248 64.6201 500.048 64.6201ZM537.308 65.1962C536.516 65.3162 535.928 65.4962 535.544 65.7362C535.184 65.9762 534.932 66.3602 534.788 66.8882C534.668 67.4161 534.608 68.2201 534.608 69.3001V86.4362L533.636 86.4002L532.7 86.4362L518.3 68.5441V81.5402C518.3 82.5962 518.396 83.4002 518.588 83.9522C518.78 84.4802 519.128 84.8642 519.632 85.1042C520.136 85.3442 520.928 85.5242 522.008 85.6442V86.3642C520.928 86.2922 519.56 86.2562 517.904 86.2562C516.584 86.2562 515.54 86.2922 514.772 86.3642V85.6442C515.564 85.5242 516.14 85.3442 516.5 85.1042C516.884 84.8642 517.136 84.4802 517.256 83.9522C517.4 83.4242 517.472 82.6202 517.472 81.5402V68.2921C517.472 67.3802 517.4 66.7201 517.256 66.3121C517.136 65.9042 516.884 65.6282 516.5 65.4841C516.14 65.3401 515.564 65.2442 514.772 65.1962V64.4761C515.54 64.5482 516.584 64.5842 517.904 64.5842C519.608 64.5842 521.072 64.5482 522.296 64.4761L533.78 78.7322V69.3001C533.78 68.2442 533.684 67.4522 533.492 66.9242C533.3 66.3722 532.94 65.9762 532.412 65.7362C531.908 65.4962 531.128 65.3162 530.072 65.1962V64.4761C531.128 64.5482 532.496 64.5842 534.176 64.5842C535.52 64.5842 536.564 64.5482 537.308 64.4761V65.1962Z" fill="#2C688C"/>
<path d="M36.702 4.87871C32.4496 9.14751 31.863 16.9228 35.2356 22.1064C37.4351 25.308 36.9952 26.3752 27.1707 43.7553C17.6395 60.6781 16.4665 62.0502 12.3607 62.0502C10.0146 62.0502 6.34871 63.1174 4.44246 64.4895C1.21651 66.6239 0.776611 68.1485 0.776611 75.7714C0.776611 85.986 3.70929 89.9499 11.7742 90.1023C16.7597 90.4073 17.3463 91.0171 27.1707 108.397C36.5553 125.168 37.1419 126.845 35.089 129.741C34.0625 131.418 33.0361 135.23 33.0361 137.974C33.0361 144.53 40.0745 152 46.2332 152C50.7788 152 59.4302 145.444 59.4302 141.938C59.4302 140.261 63.3894 139.803 80.6922 139.803C97.995 139.803 101.954 140.261 101.954 141.938C101.954 145.597 110.606 152 115.444 152C125.122 152 131.867 138.126 126.295 129.741C124.389 126.997 124.976 125.168 134.36 108.55C144.038 90.8646 144.625 90.4073 149.61 90.1023C158.848 89.7974 164.86 80.9549 162.074 71.8075C160.021 65.4043 155.622 62.0502 149.317 62.0502C144.918 62.0502 144.185 61.1355 134.214 43.7553C124.389 26.3752 123.949 25.1555 126.149 22.1064C132.307 12.9589 126.149 1.06728 115.151 1.06728C110.752 1.06728 108.259 1.98203 105.62 4.87871C103.567 6.86066 101.954 9.29997 101.954 10.2147C101.954 11.1295 94.4758 11.7393 80.6922 11.7393C63.9759 11.7393 59.4302 11.2819 59.4302 9.75734C59.4302 8.53769 57.9639 6.25082 56.0577 4.42134C51.0721 -0.457291 41.3942 -0.15239 36.702 4.87871ZM54.8846 9.60489C58.6971 14.636 58.6971 15.2458 54.5913 20.1244C50.4856 25.1555 40.9543 26.5276 38.9015 22.2588C36.5553 17.8376 37.1419 9.45242 40.0745 6.86066C45.5 1.82956 49.6058 2.59184 54.8846 9.60489ZM122.923 8.84261C125.416 12.5016 125.562 13.5688 123.803 18.295C120.87 26.985 111.192 27.2899 105.767 18.7523C103.127 14.4835 103.42 13.1114 108.406 7.47049C112.365 2.89676 118.964 3.50659 122.923 8.84261ZM103.274 21.4966C105.473 25.6129 110.606 28.5096 115.884 28.5096C118.084 28.5096 120.283 29.8817 121.456 31.8636C128.348 43.298 140.079 64.7944 140.079 65.5567C140.079 66.1665 134.214 66.6239 127.029 66.6239C114.858 66.6239 113.831 66.4715 111.632 62.8125C110.312 60.6781 107.673 58.6961 105.62 58.0863C102.981 57.4765 101.954 56.1044 101.954 53.3601C101.954 49.8536 102.394 49.7012 109.726 50.0061C117.351 50.4634 117.351 50.4634 117.351 46.0422C117.351 41.6209 117.204 41.4685 109.726 41.4685C103.274 41.6209 101.954 41.1635 101.954 38.8767C101.954 36.8947 100.781 36.1325 97.5551 36.1325C94.3291 36.1325 93.1561 36.8947 93.1561 38.8767C93.1561 41.1635 91.8364 41.6209 85.5311 41.4685C77.9061 41.4685 77.7595 41.6209 77.7595 46.0422C77.7595 50.4634 77.7595 50.4634 85.5311 50.0061C92.8628 49.7012 93.1561 49.8536 93.1561 53.5126C93.1561 55.9519 92.2763 57.4765 91.1032 57.4765C89.9301 57.4765 86.9974 59.4584 84.358 62.0502C80.8388 65.5567 78.1994 66.6239 73.8004 66.6239C61.3365 66.6239 55.0312 74.7041 55.0312 90.7122C55.0312 104.586 57.524 103.519 58.2572 89.34C58.6971 78.0582 59.137 76.6861 62.8028 73.332C66.0288 70.5878 68.6682 69.6731 74.2403 69.6731C80.5455 69.6731 82.1585 69.0632 85.2378 65.0993C91.8364 57.1716 104.154 57.6289 110.606 66.0141C113.098 69.3681 114.565 69.6731 124.976 69.6731H136.413V75.7714V81.8696H125.269C114.271 81.8696 113.831 82.0221 108.846 87.2057C104.887 91.322 102.541 92.5417 98.2883 92.5417C92.1296 92.5417 84.7979 88.5778 83.4782 84.6139C82.5984 81.4123 74.2403 80.8024 71.4542 83.6991C69.2547 85.986 68.9614 102.299 71.161 100.927C72.0408 100.469 72.6273 96.9629 72.6273 93.3039C72.6273 88.1204 73.3605 86.1385 75.56 84.9188C77.9061 83.5467 79.3725 84.309 84.358 89.4925C89.1969 94.5236 91.2498 95.5908 96.0887 95.5908C102.981 95.5908 109.579 92.5417 112.658 87.8155C114.565 85.0712 116.471 84.6139 127.029 84.6139C137.293 84.4614 139.346 84.9188 139.199 86.9007C139.053 88.1204 134.654 97.1154 129.228 106.72C120.43 122.576 119.11 124.1 115.884 123.338C111.485 122.576 105.327 126.387 103.127 131.571L101.368 135.382L80.3989 134.925C65.149 134.772 59.4302 134.162 59.4302 132.79C59.4302 129.131 50.3389 122.881 45.9399 123.338C41.8341 123.795 41.101 122.728 31.2765 105.196C21.8919 88.1204 21.1587 86.2909 23.3583 84.1565C26.2909 80.9549 26.4376 72.8747 23.5049 68.6059C21.0121 64.9469 20.4256 66.1665 34.7957 41.0111C40.6611 30.9489 42.714 28.5096 45.5 28.5096C50.7788 28.5096 55.911 25.6129 58.1105 21.4966C59.8701 17.8376 60.31 17.8376 80.6922 17.8376C101.074 17.8376 101.514 17.8376 103.274 21.4966ZM99.0214 40.7062C99.0214 41.4685 98.4349 42.2307 97.5551 42.2307C96.8219 42.2307 96.0887 41.4685 96.0887 40.7062C96.0887 39.7914 96.8219 39.1816 97.5551 39.1816C98.4349 39.1816 99.0214 39.7914 99.0214 40.7062ZM115.151 46.0422C115.151 47.8717 112.218 48.329 97.5551 48.329C82.8917 48.329 79.959 47.8717 79.959 46.0422C79.959 44.0602 82.8917 43.7553 97.5551 43.7553C112.218 43.7553 115.151 44.0602 115.151 46.0422ZM99.0214 52.9028C99.0214 54.5798 98.1416 55.9519 96.9686 55.9519C95.6488 55.9519 95.2089 54.8847 95.6488 52.9028C96.0887 51.2257 96.9686 49.8536 97.7017 49.8536C98.4349 49.8536 99.0214 51.2257 99.0214 52.9028ZM20.8655 70.7403C23.3583 75.6189 23.3583 75.9238 20.7188 81.1074C17.6395 86.9007 14.1203 87.8155 7.37514 84.6139C4.29583 83.2418 3.70929 81.8696 3.70929 76.3812C3.70929 71.3501 4.44246 69.3681 6.93524 67.5387C12.2141 63.5748 17.7862 64.9469 20.8655 70.7403ZM155.329 68.3009C163.247 74.7041 158.408 86.5958 147.997 86.1385C143.598 85.986 142.425 85.0712 140.519 80.9549C138.613 76.8386 138.466 75.1615 139.932 71.3501C141.692 67.2337 143.598 66.1665 149.757 65.2518C150.637 65.2518 153.129 66.4715 155.329 68.3009ZM55.1778 132.333L59.2836 137.212L56.3509 141.48C51.0721 149.256 40.8077 148.798 37.2885 140.871C35.9688 137.974 36.2621 136.144 38.0217 132.333C40.0745 128.369 41.2476 127.607 45.7933 127.607C49.899 127.607 52.0985 128.674 55.1778 132.333ZM122.483 129.894C123.363 131.113 124.389 134.162 124.536 136.754C125.269 148.493 110.752 151.695 105.473 141.023C103.274 136.602 103.274 136.297 107.233 132.028C111.779 127.149 119.404 126.082 122.483 129.894Z" fill="#2C688C"/>
<path d="M68.9613 74.0942C67.7882 76.3811 69.4012 78.8204 72.0406 78.8204C73.3603 78.8204 74.0935 77.7532 73.8002 76.2286C73.2137 73.1795 70.281 71.9598 68.9613 74.0942Z" fill="#2C688C"/>
<path d="M77.9061 73.7893C76.2931 75.4663 77.0263 77.2958 79.2258 77.2958C80.3989 77.2958 81.4253 76.686 81.4253 75.9237C81.4253 73.9418 79.0791 72.5696 77.9061 73.7893Z" fill="#2C688C"/>
<path d="M86.5576 74.0942C85.5311 75.9237 88.3172 77.7532 90.2234 76.5335C91.8364 75.4663 90.81 72.7221 88.7571 72.7221C88.0239 72.7221 87.1441 73.3319 86.5576 74.0942Z" fill="#2C688C"/>
<path d="M95.2087 74.3992C94.7688 75.3139 94.9154 76.686 95.7953 77.6008C97.7015 79.5827 100.488 77.9057 100.488 74.8565C100.488 72.4172 96.6751 71.9598 95.2087 74.3992Z" fill="#2C688C"/>
<path d="M105.766 73.7893C104.153 75.4663 104.887 77.2958 107.086 77.2958C108.259 77.2958 109.286 76.686 109.286 75.9237C109.286 73.9418 106.939 72.5696 105.766 73.7893Z" fill="#2C688C"/>
<path d="M114.564 73.7893C112.951 75.4663 113.684 77.2958 115.884 77.2958C117.057 77.2958 118.083 76.686 118.083 75.9237C118.083 73.9418 115.737 72.5696 114.564 73.7893Z" fill="#2C688C"/>
<path d="M123.069 74.3992C122.629 75.3139 122.776 76.686 123.656 77.6008C125.562 79.5827 128.348 77.9057 128.348 74.8565C128.348 72.4172 124.536 71.9598 123.069 74.3992Z" fill="#2C688C"/>
<path d="M63.8293 81.1072C63.8293 82.4793 64.5625 83.3941 65.4423 83.0892C66.3221 82.7843 67.0553 81.8695 67.0553 81.1072C67.0553 80.3449 66.3221 79.4302 65.4423 79.1253C64.5625 78.8204 63.8293 79.7351 63.8293 81.1072Z" fill="#2C688C"/>
<path d="M62.3628 88.7301C62.3628 90.1022 63.096 91.017 63.9758 90.7121C64.8556 90.4071 65.5887 89.4924 65.5887 88.7301C65.5887 87.9678 64.8556 87.0531 63.9758 86.7482C63.096 86.4433 62.3628 87.358 62.3628 88.7301Z" fill="#2C688C"/>
<path d="M61.6297 95.4382C60.4567 97.7251 62.0696 100.164 64.709 100.164C66.0287 100.164 66.7619 99.0972 66.4686 97.5726C65.8821 94.5235 62.9494 93.3038 61.6297 95.4382Z" fill="#2C688C"/>
<path d="M46.0867 105.653C42.1276 110.532 49.606 116.325 54.005 111.599C57.2309 108.397 69.4016 108.55 72.9208 111.904C76.2934 115.105 80.3991 113.123 81.1323 107.94C81.7188 103.976 77.7597 101.994 73.9472 104.433C70.5746 106.72 55.618 106.873 54.2983 104.738C52.9785 102.451 48.2863 102.909 46.0867 105.653Z" fill="#2C688C"/>
<path d="M53.1249 117.849C51.9518 119.069 53.2715 121.508 55.1777 121.508C55.9109 121.508 56.4974 120.441 56.4974 119.222C56.4974 116.935 54.7378 116.172 53.1249 117.849Z" fill="#2C688C"/>
<path d="M61.923 118.002C60.1634 119.679 60.7499 121.508 63.0961 121.508C64.2692 121.508 65.2956 120.441 65.2956 119.222C65.2956 116.782 63.536 116.172 61.923 118.002Z" fill="#2C688C"/>
<path d="M69.6946 119.222C69.6946 120.594 70.4278 121.508 71.3076 121.203C72.1874 120.899 72.9205 119.984 72.9205 119.222C72.9205 118.459 72.1874 117.545 71.3076 117.24C70.4278 116.935 69.6946 117.849 69.6946 119.222Z" fill="#2C688C"/>
<path d="M61.1898 127.759C61.4831 128.674 62.3629 129.284 63.0961 129.284C63.8292 129.284 64.709 128.674 65.0023 127.759C65.2956 126.844 64.4158 126.082 63.0961 126.082C61.7763 126.082 60.8965 126.844 61.1898 127.759Z" fill="#2C688C"/>
<path d="M69.988 127.912C70.8678 130.656 74.0938 131.113 74.0938 128.521C74.0938 127.149 73.0673 126.082 71.7476 126.082C70.4279 126.082 69.6947 126.844 69.988 127.912Z" fill="#2C688C"/>
</svg>
