<svg width="565" height="154" viewBox="0 0 565 154" fill="none" xmlns="http://www.w3.org/2000/svg">
<path d="M231.292 63.0548C232.42 63.0548 233.344 63.0188 234.064 62.9468V63.6668C233.464 63.9068 232.876 64.3748 232.3 65.0708C231.748 65.7428 231.28 66.7028 230.896 67.9508L224.56 88.5068C224.296 88.4828 223.876 88.4708 223.3 88.4708C222.724 88.4708 222.304 88.4828 222.04 88.5068L216.748 72.4508L211.42 88.5068C211.156 88.4828 210.736 88.4708 210.16 88.4708C209.584 88.4708 209.164 88.4828 208.9 88.5068L200.836 65.9708C200.548 65.1788 200.2 64.6028 199.792 64.2428C199.384 63.8828 198.976 63.6908 198.568 63.6668V62.9468C200.008 63.0188 201.796 63.0548 203.932 63.0548C205.948 63.0548 207.424 63.0188 208.36 62.9468V63.6668C207.52 63.7868 207.1 64.2548 207.1 65.0708C207.1 65.4548 207.208 65.9948 207.424 66.6908L212.68 81.9188L216.316 71.1908L214.48 65.6108C214.24 64.9148 213.952 64.4348 213.616 64.1708C213.304 63.8828 212.932 63.7148 212.5 63.6668V62.9468C213.844 63.0188 215.56 63.0548 217.648 63.0548C220 63.0548 221.728 63.0188 222.832 62.9468V63.6668C221.968 63.6908 221.344 63.7988 220.96 63.9908C220.576 64.1588 220.384 64.4948 220.384 64.9988C220.384 65.4308 220.504 65.9948 220.744 66.6908L225.676 81.7388L229.096 70.8668C229.648 69.0668 229.924 67.6748 229.924 66.6908C229.924 65.6588 229.66 64.9148 229.132 64.4588C228.628 63.9788 227.86 63.7148 226.828 63.6668V62.9468C228.46 63.0188 229.948 63.0548 231.292 63.0548ZM253.588 85.4108C254.284 86.8988 255.04 87.6668 255.856 87.7148V88.4348C254.704 88.3628 253.132 88.3268 251.14 88.3268C248.572 88.3268 246.676 88.3628 245.452 88.4348V87.7148C246.244 87.6668 246.832 87.5468 247.216 87.3548C247.6 87.1388 247.792 86.7908 247.792 86.3108C247.792 85.8788 247.636 85.3388 247.324 84.6908L245.524 80.5868H237.964L237.532 81.5588C236.86 83.1428 236.524 84.3788 236.524 85.2668C236.524 86.0828 236.788 86.6828 237.316 87.0668C237.844 87.4508 238.624 87.6668 239.656 87.7148V88.4348C238.288 88.3628 236.908 88.3268 235.516 88.3268C234.22 88.3268 233.248 88.3628 232.6 88.4348V87.7148C233.176 87.5948 233.704 87.2348 234.184 86.6348C234.688 86.0108 235.216 85.0868 235.768 83.8628L243.364 66.4748C243.556 66.4988 243.832 66.5108 244.192 66.5108C244.576 66.5108 244.852 66.4988 245.02 66.4748L253.588 85.4108ZM245.2 79.8668L241.744 71.9828L238.288 79.8668H245.2ZM275.954 66.5468C275.786 68.3708 275.702 70.0028 275.702 71.4428C275.702 72.7868 275.738 73.8428 275.81 74.6108H274.982C274.646 72.7868 274.238 71.3588 273.758 70.3268C273.302 69.2948 272.702 68.5508 271.958 68.0948C271.238 67.6148 270.302 67.3748 269.15 67.3748H268.034V84.2588C268.034 85.2668 268.13 85.9988 268.322 86.4548C268.514 86.9108 268.85 87.2228 269.33 87.3908C269.81 87.5588 270.59 87.6668 271.67 87.7148V88.4348C270.374 88.3628 268.214 88.3268 265.19 88.3268C262.142 88.3268 260.042 88.3628 258.89 88.4348V87.7148C259.97 87.6668 260.75 87.5588 261.23 87.3908C261.71 87.2228 262.046 86.9108 262.238 86.4548C262.43 85.9988 262.526 85.2668 262.526 84.2588V67.3748H261.41C260.258 67.3748 259.31 67.6148 258.566 68.0948C257.846 68.5508 257.246 69.2948 256.766 70.3268C256.31 71.3588 255.914 72.7868 255.578 74.6108H254.75C254.822 73.8428 254.858 72.7868 254.858 71.4428C254.858 70.0028 254.774 68.3708 254.606 66.5468C256.694 66.6188 260.222 66.6548 265.19 66.6548C270.254 66.6548 273.842 66.6188 275.954 66.5468ZM296.993 83.7548C296.993 85.1228 297.077 86.6828 297.245 88.4348C295.685 88.3628 293.057 88.3268 289.361 88.3268C284.417 88.3268 280.697 88.3628 278.201 88.4348V87.7148C279.017 87.6668 279.605 87.5708 279.965 87.4268C280.325 87.2828 280.565 87.0068 280.685 86.5988C280.829 86.1908 280.901 85.5308 280.901 84.6188V70.3628C280.901 69.4508 280.829 68.7908 280.685 68.3828C280.565 67.9748 280.313 67.6988 279.929 67.5548C279.569 67.4108 278.993 67.3148 278.201 67.2668V66.5468C280.697 66.6188 284.417 66.6548 289.361 66.6548C292.721 66.6548 295.109 66.6188 296.525 66.5468C296.357 68.1548 296.273 69.5948 296.273 70.8668C296.273 71.8028 296.309 72.5468 296.381 73.0988H295.553C295.193 71.0348 294.569 69.5708 293.681 68.7068C292.793 67.8188 291.569 67.3748 290.009 67.3748H288.677C288.053 67.3748 287.585 67.4348 287.273 67.5548C286.961 67.6508 286.733 67.8668 286.589 68.2028C286.469 68.5148 286.409 69.0188 286.409 69.7148V77.0588H288.101C289.205 77.0588 290.033 76.6748 290.585 75.9068C291.161 75.1148 291.545 74.2028 291.737 73.1708H292.565C292.493 73.9868 292.457 74.9228 292.457 75.9788V77.4188C292.457 78.4988 292.529 79.9148 292.673 81.6668H291.845C291.677 80.5388 291.293 79.6148 290.693 78.8948C290.117 78.1508 289.253 77.7788 288.101 77.7788H286.409V85.2668C286.409 85.9628 286.469 86.4788 286.589 86.8148C286.733 87.1268 286.961 87.3428 287.273 87.4628C287.585 87.5588 288.053 87.6068 288.677 87.6068H290.225C291.929 87.6068 293.261 87.1148 294.221 86.1308C295.205 85.1468 295.889 83.4908 296.273 81.1628H297.101C297.029 81.8348 296.993 82.6988 296.993 83.7548ZM323.43 86.9228C322.854 87.5948 322.206 88.0988 321.486 88.4348C320.766 88.7708 319.866 88.9388 318.786 88.9388C317.418 88.9388 316.362 88.6748 315.618 88.1468C314.874 87.6188 314.394 86.9108 314.178 86.0228L313.134 81.7748C312.87 80.4308 312.462 79.5428 311.91 79.1108C311.382 78.6548 310.59 78.4268 309.534 78.4268H308.346V84.6188C308.346 85.5308 308.406 86.1908 308.526 86.5988C308.67 87.0068 308.922 87.2828 309.282 87.4268C309.666 87.5708 310.254 87.6668 311.046 87.7148V88.4348C309.678 88.3628 307.722 88.3268 305.178 88.3268C302.946 88.3268 301.266 88.3628 300.138 88.4348V87.7148C300.954 87.6668 301.542 87.5708 301.902 87.4268C302.262 87.2828 302.502 87.0068 302.622 86.5988C302.766 86.1908 302.838 85.5308 302.838 84.6188V70.3628C302.838 69.4508 302.766 68.7908 302.622 68.3828C302.502 67.9748 302.262 67.6988 301.902 67.5548C301.542 67.4108 300.954 67.3148 300.138 67.2668V66.5468C301.266 66.6188 302.874 66.6548 304.962 66.6548L309.066 66.6188C309.546 66.5948 310.086 66.5828 310.686 66.5828C313.902 66.5828 316.302 67.0748 317.886 68.0588C319.494 69.0188 320.298 70.3628 320.298 72.0908C320.298 73.5788 319.662 74.8868 318.39 76.0148C317.118 77.1428 314.994 77.8628 312.018 78.1748C312.354 78.1748 312.702 78.2108 313.062 78.2828C314.79 78.4748 316.146 78.8588 317.13 79.4348C318.138 80.0108 318.798 80.9228 319.11 82.1708L319.866 85.3748C320.034 86.0468 320.238 86.5268 320.478 86.8148C320.718 87.1028 321.018 87.2468 321.378 87.2468C321.882 87.2468 322.398 86.9828 322.926 86.4548L323.43 86.9228ZM310.218 67.2668C309.69 67.2668 309.294 67.3508 309.03 67.5188C308.766 67.6868 308.586 67.9868 308.49 68.4188C308.394 68.8508 308.346 69.4988 308.346 70.3628V77.7068H309.894C311.67 77.7068 312.882 77.2508 313.53 76.3388C314.202 75.4268 314.538 74.1428 314.538 72.4868C314.538 70.7348 314.202 69.4268 313.53 68.5628C312.882 67.6988 311.778 67.2668 310.218 67.2668ZM353.175 62.9468C353.007 65.2268 352.923 67.2668 352.923 69.0668C352.923 70.1948 352.959 71.1068 353.031 71.8028H352.203C351.627 68.8508 350.835 66.7748 349.827 65.5748C348.843 64.3748 347.487 63.7748 345.759 63.7748H344.931V84.3308C344.931 85.3388 345.027 86.0708 345.219 86.5268C345.435 86.9828 345.795 87.2948 346.299 87.4628C346.827 87.6068 347.655 87.6908 348.783 87.7148V88.4348C345.759 88.3628 343.479 88.3268 341.943 88.3268C340.431 88.3268 338.235 88.3628 335.354 88.4348V87.7148C336.483 87.6908 337.299 87.6068 337.803 87.4628C338.331 87.2948 338.691 86.9828 338.883 86.5268C339.099 86.0708 339.207 85.3388 339.207 84.3308V63.7748H338.415C337.263 63.7748 336.279 64.0268 335.463 64.5308C334.671 65.0348 333.987 65.8748 333.411 67.0508C332.835 68.2028 332.343 69.7868 331.935 71.8028H331.107C331.179 71.1068 331.215 70.1948 331.215 69.0668C331.215 67.2668 331.131 65.2268 330.963 62.9468C333.147 63.0188 336.855 63.0548 342.087 63.0548C347.319 63.0548 351.015 63.0188 353.175 62.9468ZM378.625 86.9228C378.049 87.5948 377.401 88.0988 376.681 88.4348C375.961 88.7708 375.061 88.9388 373.981 88.9388C372.613 88.9388 371.557 88.6748 370.813 88.1468C370.069 87.6188 369.589 86.9108 369.373 86.0228L368.329 81.7748C368.065 80.4308 367.657 79.5428 367.105 79.1108C366.577 78.6548 365.785 78.4268 364.729 78.4268H363.541V84.6188C363.541 85.5308 363.601 86.1908 363.721 86.5988C363.865 87.0068 364.117 87.2828 364.477 87.4268C364.861 87.5708 365.449 87.6668 366.241 87.7148V88.4348C364.873 88.3628 362.917 88.3268 360.373 88.3268C358.141 88.3268 356.461 88.3628 355.333 88.4348V87.7148C356.149 87.6668 356.737 87.5708 357.097 87.4268C357.457 87.2828 357.697 87.0068 357.817 86.5988C357.961 86.1908 358.033 85.5308 358.033 84.6188V70.3628C358.033 69.4508 357.961 68.7908 357.817 68.3828C357.697 67.9748 357.457 67.6988 357.097 67.5548C356.737 67.4108 356.149 67.3148 355.333 67.2668V66.5468C356.461 66.6188 358.069 66.6548 360.157 66.6548L364.261 66.6188C364.741 66.5948 365.281 66.5828 365.881 66.5828C369.097 66.5828 371.497 67.0748 373.081 68.0588C374.689 69.0188 375.493 70.3628 375.493 72.0908C375.493 73.5788 374.857 74.8868 373.585 76.0148C372.313 77.1428 370.189 77.8628 367.213 78.1748C367.549 78.1748 367.897 78.2108 368.257 78.2828C369.985 78.4748 371.341 78.8588 372.325 79.4348C373.333 80.0108 373.993 80.9228 374.305 82.1708L375.061 85.3748C375.229 86.0468 375.433 86.5268 375.673 86.8148C375.913 87.1028 376.213 87.2468 376.573 87.2468C377.077 87.2468 377.593 86.9828 378.121 86.4548L378.625 86.9228ZM365.413 67.2668C364.885 67.2668 364.489 67.3508 364.225 67.5188C363.961 67.6868 363.781 67.9868 363.685 68.4188C363.589 68.8508 363.541 69.4988 363.541 70.3628V77.7068H365.089C366.865 77.7068 368.077 77.2508 368.725 76.3388C369.397 75.4268 369.733 74.1428 369.733 72.4868C369.733 70.7348 369.397 69.4268 368.725 68.5628C368.077 67.6988 366.973 67.2668 365.413 67.2668ZM398.102 83.7548C398.102 85.1228 398.186 86.6828 398.354 88.4348C396.794 88.3628 394.166 88.3268 390.47 88.3268C385.526 88.3268 381.806 88.3628 379.31 88.4348V87.7148C380.126 87.6668 380.714 87.5708 381.074 87.4268C381.434 87.2828 381.674 87.0068 381.794 86.5988C381.938 86.1908 382.01 85.5308 382.01 84.6188V70.3628C382.01 69.4508 381.938 68.7908 381.794 68.3828C381.674 67.9748 381.422 67.6988 381.038 67.5548C380.678 67.4108 380.102 67.3148 379.31 67.2668V66.5468C381.806 66.6188 385.526 66.6548 390.47 66.6548C393.83 66.6548 396.218 66.6188 397.634 66.5468C397.466 68.1548 397.382 69.5948 397.382 70.8668C397.382 71.8028 397.418 72.5468 397.49 73.0988H396.662C396.302 71.0348 395.678 69.5708 394.79 68.7068C393.902 67.8188 392.678 67.3748 391.118 67.3748H389.786C389.162 67.3748 388.694 67.4348 388.382 67.5548C388.07 67.6508 387.842 67.8668 387.698 68.2028C387.578 68.5148 387.518 69.0188 387.518 69.7148V77.0588H389.21C390.314 77.0588 391.142 76.6748 391.694 75.9068C392.27 75.1148 392.654 74.2028 392.846 73.1708H393.674C393.602 73.9868 393.566 74.9228 393.566 75.9788V77.4188C393.566 78.4988 393.638 79.9148 393.782 81.6668H392.954C392.786 80.5388 392.402 79.6148 391.802 78.8948C391.226 78.1508 390.362 77.7788 389.21 77.7788H387.518V85.2668C387.518 85.9628 387.578 86.4788 387.698 86.8148C387.842 87.1268 388.07 87.3428 388.382 87.4628C388.694 87.5588 389.162 87.6068 389.786 87.6068H391.334C393.038 87.6068 394.37 87.1148 395.33 86.1308C396.314 85.1468 396.998 83.4908 397.382 81.1628H398.21C398.138 81.8348 398.102 82.6988 398.102 83.7548ZM420.615 85.4108C421.311 86.8988 422.067 87.6668 422.883 87.7148V88.4348C421.731 88.3628 420.159 88.3268 418.167 88.3268C415.599 88.3268 413.703 88.3628 412.479 88.4348V87.7148C413.271 87.6668 413.859 87.5468 414.243 87.3548C414.627 87.1388 414.819 86.7908 414.819 86.3108C414.819 85.8788 414.663 85.3388 414.351 84.6908L412.551 80.5868H404.991L404.559 81.5588C403.887 83.1428 403.551 84.3788 403.551 85.2668C403.551 86.0828 403.815 86.6828 404.343 87.0668C404.871 87.4508 405.651 87.6668 406.683 87.7148V88.4348C405.315 88.3628 403.935 88.3268 402.543 88.3268C401.247 88.3268 400.275 88.3628 399.627 88.4348V87.7148C400.203 87.5948 400.731 87.2348 401.211 86.6348C401.715 86.0108 402.243 85.0868 402.795 83.8628L410.391 66.4748C410.583 66.4988 410.859 66.5108 411.219 66.5108C411.603 66.5108 411.879 66.4988 412.047 66.4748L420.615 85.4108ZM412.227 79.8668L408.771 71.9828L405.315 79.8668H412.227ZM442.981 66.5468C442.813 68.3708 442.729 70.0028 442.729 71.4428C442.729 72.7868 442.765 73.8428 442.837 74.6108H442.009C441.673 72.7868 441.265 71.3588 440.785 70.3268C440.329 69.2948 439.729 68.5508 438.985 68.0948C438.265 67.6148 437.329 67.3748 436.177 67.3748H435.061V84.2588C435.061 85.2668 435.157 85.9988 435.349 86.4548C435.541 86.9108 435.877 87.2228 436.357 87.3908C436.837 87.5588 437.617 87.6668 438.697 87.7148V88.4348C437.401 88.3628 435.241 88.3268 432.217 88.3268C429.169 88.3268 427.069 88.3628 425.917 88.4348V87.7148C426.997 87.6668 427.777 87.5588 428.257 87.3908C428.737 87.2228 429.073 86.9108 429.265 86.4548C429.457 85.9988 429.553 85.2668 429.553 84.2588V67.3748H428.437C427.285 67.3748 426.337 67.6148 425.593 68.0948C424.873 68.5508 424.273 69.2948 423.793 70.3268C423.337 71.3588 422.941 72.7868 422.605 74.6108H421.777C421.849 73.8428 421.885 72.7868 421.885 71.4428C421.885 70.0028 421.801 68.3708 421.633 66.5468C423.721 66.6188 427.249 66.6548 432.217 66.6548C437.281 66.6548 440.869 66.6188 442.981 66.5468ZM474.64 67.2668C473.776 67.3148 473.14 67.4108 472.732 67.5548C472.348 67.6988 472.084 67.9748 471.94 68.3828C471.796 68.7908 471.724 69.4508 471.724 70.3628V84.6188C471.724 85.5308 471.796 86.1908 471.94 86.5988C472.084 87.0068 472.348 87.2828 472.732 87.4268C473.14 87.5708 473.776 87.6668 474.64 87.7148V88.4348C473.344 88.3628 471.532 88.3268 469.204 88.3268C466.42 88.3268 464.38 88.3628 463.084 88.4348V87.7148C463.948 87.6668 464.572 87.5708 464.956 87.4268C465.364 87.2828 465.64 87.0068 465.784 86.5988C465.928 86.1908 466 85.5308 466 84.6188V68.8148L457.756 88.6148H457.18L448.828 68.8508V83.6108C448.828 84.6668 448.924 85.4708 449.116 86.0228C449.308 86.5508 449.656 86.9348 450.16 87.1748C450.688 87.4148 451.48 87.5948 452.536 87.7148V88.4348C451.504 88.3628 450.136 88.3268 448.432 88.3268C447.112 88.3268 446.068 88.3628 445.3 88.4348V87.7148C446.092 87.5948 446.668 87.4148 447.028 87.1748C447.412 86.9348 447.664 86.5508 447.784 86.0228C447.928 85.4948 448 84.6908 448 83.6108V70.3628C448 69.4508 447.928 68.7908 447.784 68.3828C447.64 67.9748 447.364 67.6988 446.956 67.5548C446.572 67.4108 445.948 67.3148 445.084 67.2668V66.5468C446.332 66.6188 448.24 66.6548 450.808 66.6548C452.056 66.6548 453.124 66.6188 454.012 66.5468L459.988 80.9108L466 66.6548H469.204C471.532 66.6548 473.344 66.6188 474.64 66.5468V67.2668ZM495.766 83.7548C495.766 85.1228 495.85 86.6828 496.018 88.4348C494.458 88.3628 491.83 88.3268 488.134 88.3268C483.19 88.3268 479.47 88.3628 476.974 88.4348V87.7148C477.79 87.6668 478.378 87.5708 478.738 87.4268C479.098 87.2828 479.338 87.0068 479.458 86.5988C479.602 86.1908 479.674 85.5308 479.674 84.6188V70.3628C479.674 69.4508 479.602 68.7908 479.458 68.3828C479.338 67.9748 479.086 67.6988 478.702 67.5548C478.342 67.4108 477.766 67.3148 476.974 67.2668V66.5468C479.47 66.6188 483.19 66.6548 488.134 66.6548C491.494 66.6548 493.882 66.6188 495.298 66.5468C495.13 68.1548 495.046 69.5948 495.046 70.8668C495.046 71.8028 495.082 72.5468 495.154 73.0988H494.326C493.966 71.0348 493.342 69.5708 492.454 68.7068C491.566 67.8188 490.342 67.3748 488.782 67.3748H487.45C486.826 67.3748 486.358 67.4348 486.046 67.5548C485.734 67.6508 485.506 67.8668 485.362 68.2028C485.242 68.5148 485.182 69.0188 485.182 69.7148V77.0588H486.874C487.978 77.0588 488.806 76.6748 489.358 75.9068C489.934 75.1148 490.318 74.2028 490.51 73.1708H491.338C491.266 73.9868 491.23 74.9228 491.23 75.9788V77.4188C491.23 78.4988 491.302 79.9148 491.446 81.6668H490.618C490.45 80.5388 490.066 79.6148 489.466 78.8948C488.89 78.1508 488.026 77.7788 486.874 77.7788H485.182V85.2668C485.182 85.9628 485.242 86.4788 485.362 86.8148C485.506 87.1268 485.734 87.3428 486.046 87.4628C486.358 87.5588 486.826 87.6068 487.45 87.6068H488.998C490.702 87.6068 492.034 87.1148 492.994 86.1308C493.978 85.1468 494.662 83.4908 495.046 81.1628H495.874C495.802 81.8348 495.766 82.6988 495.766 83.7548ZM521.484 67.2668C520.692 67.3868 520.104 67.5668 519.72 67.8068C519.36 68.0468 519.108 68.4308 518.964 68.9588C518.844 69.4868 518.784 70.2908 518.784 71.3708V88.5068L517.812 88.4708L516.876 88.5068L502.476 70.6148V83.6108C502.476 84.6668 502.572 85.4708 502.764 86.0228C502.956 86.5508 503.304 86.9348 503.808 87.1748C504.312 87.4148 505.104 87.5948 506.184 87.7148V88.4348C505.104 88.3628 503.736 88.3268 502.08 88.3268C500.76 88.3268 499.716 88.3628 498.948 88.4348V87.7148C499.74 87.5948 500.316 87.4148 500.676 87.1748C501.06 86.9348 501.312 86.5508 501.432 86.0228C501.576 85.4948 501.648 84.6908 501.648 83.6108V70.3628C501.648 69.4508 501.576 68.7908 501.432 68.3828C501.312 67.9748 501.06 67.6988 500.676 67.5548C500.316 67.4108 499.74 67.3148 498.948 67.2668V66.5468C499.716 66.6188 500.76 66.6548 502.08 66.6548C503.784 66.6548 505.248 66.6188 506.472 66.5468L517.956 80.8028V71.3708C517.956 70.3148 517.86 69.5228 517.668 68.9948C517.476 68.4428 517.116 68.0468 516.588 67.8068C516.084 67.5668 515.304 67.3868 514.248 67.2668V66.5468C515.304 66.6188 516.672 66.6548 518.352 66.6548C519.696 66.6548 520.74 66.6188 521.484 66.5468V67.2668ZM544.899 66.5468C544.731 68.3708 544.647 70.0028 544.647 71.4428C544.647 72.7868 544.683 73.8428 544.755 74.6108H543.927C543.591 72.7868 543.183 71.3588 542.703 70.3268C542.247 69.2948 541.647 68.5508 540.903 68.0948C540.183 67.6148 539.247 67.3748 538.095 67.3748H536.979V84.2588C536.979 85.2668 537.075 85.9988 537.267 86.4548C537.459 86.9108 537.795 87.2228 538.275 87.3908C538.755 87.5588 539.535 87.6668 540.615 87.7148V88.4348C539.319 88.3628 537.159 88.3268 534.135 88.3268C531.087 88.3268 528.987 88.3628 527.835 88.4348V87.7148C528.915 87.6668 529.695 87.5588 530.175 87.3908C530.655 87.2228 530.991 86.9108 531.183 86.4548C531.375 85.9988 531.471 85.2668 531.471 84.2588V67.3748H530.355C529.203 67.3748 528.255 67.6148 527.511 68.0948C526.791 68.5508 526.191 69.2948 525.711 70.3268C525.255 71.3588 524.859 72.7868 524.523 74.6108H523.695C523.767 73.8428 523.803 72.7868 523.803 71.4428C523.803 70.0028 523.719 68.3708 523.551 66.5468C525.639 66.6188 529.167 66.6548 534.135 66.6548C539.199 66.6548 542.787 66.6188 544.899 66.5468Z" fill="#2C688C"/>
<path d="M39.644 2.70044C38.0143 3.61 35.9402 6.7935 34.7549 9.6738C32.8289 14.3732 32.8289 15.4344 35.1994 20.437L37.8662 26.0461L27.4953 44.5407C17.2726 62.8837 16.9763 63.1868 11.7909 63.1868C3.64239 63.1868 0.0866699 67.5831 0.0866699 77.4368C0.0866699 87.1389 3.49423 91.2319 11.6428 91.2319C17.1245 91.2319 17.1245 91.2319 27.7917 110.181C33.5697 120.49 37.718 129.434 36.9773 130.04C34.6068 131.405 32.6808 140.5 34.0142 143.987C37.5699 153.537 49.8667 156.569 56.9782 149.748C59.0523 147.625 60.8302 145.2 60.8302 143.987C60.8302 142.471 65.5712 142.016 82.7571 142.016H104.536L106.462 146.413C110.166 155.053 123.055 156.266 128.981 148.535C132.537 143.835 132.834 136.407 129.722 131.859C127.5 128.676 127.944 127.463 138.167 109.575C147.501 93.2027 149.427 90.7771 152.094 91.3835C156.094 92.4447 163.946 88.5032 166.02 84.5617C170.761 75.3144 163.798 63.1868 153.723 63.1868C148.686 63.1868 148.39 62.7321 137.871 44.2375C128.241 26.9556 127.5 25.1365 129.574 22.8626C133.278 19.0727 132.685 9.21902 128.241 4.82277C123.352 -0.331467 113.129 -0.483063 108.536 4.51958C106.758 6.49031 105.277 8.91583 105.277 9.82539C105.277 11.1898 99.2023 11.6445 83.0535 11.6445C64.8304 11.6445 60.8302 11.1898 60.8302 9.5222C60.8302 3.15521 46.4592 -1.39264 39.644 2.70044ZM55.0522 8.46104C57.4226 10.8866 59.3487 13.7669 59.3487 14.6764C59.3487 15.586 57.4226 18.4663 55.0522 20.8918C49.4223 26.5008 42.9035 26.804 39.4959 21.4982C36.0883 16.344 36.5328 12.0993 40.8293 7.85466C45.5702 2.85202 49.7186 3.15521 55.0522 8.46104ZM124.389 6.64191C128.685 10.2802 129.426 15.7376 126.463 20.8918C122.759 27.2588 115.499 26.9556 109.721 20.437C105.573 15.7376 105.425 15.4344 107.647 11.6445C112.684 3.61 118.611 1.94246 124.389 6.64191ZM105.721 20.5886C106.61 24.5301 113.425 28.7748 118.759 28.7748C122.611 28.7748 123.796 30.4423 133.426 47.2694C143.649 65.4608 143.797 65.9156 141.575 70.1602C138.76 75.7692 138.76 79.1043 141.723 84.2585C144.093 88.2 143.945 88.6548 133.722 106.391C123.648 124.28 123.352 124.583 117.425 125.492C111.055 126.402 107.055 128.979 105.425 133.224C104.536 135.649 102.165 136.104 82.609 136.407C65.5712 136.71 60.8302 136.256 60.8302 134.74C60.8302 130.798 53.1262 125.341 47.6444 125.341C42.459 125.341 42.1627 124.886 33.866 110.181L25.4212 95.0218H41.7182C56.2374 95.0218 57.8671 95.325 57.8671 97.7505C57.8671 103.208 62.1636 107.149 68.0898 107.149C71.0529 107.149 74.6086 106.24 75.7939 105.33C79.6459 101.995 83.2016 95.325 81.5719 94.2638C80.683 93.6574 80.0904 86.3809 80.2385 77.1336C80.3867 54.5459 80.3867 54.3943 77.1273 51.0592C71.0529 44.8438 57.8671 48.9369 57.8671 57.123C57.8671 60.0033 56.83 60.1549 41.5701 60.1549C32.6808 60.1549 25.273 59.8518 25.273 59.5486C25.273 59.0938 28.9769 52.7268 33.4215 45.147C37.8662 37.5673 41.5701 30.7455 41.5701 29.9875C41.5701 29.2296 43.9405 28.6232 46.7555 28.6232C52.8298 28.6232 59.3487 24.8333 60.3857 20.5886C61.1265 17.8599 62.7562 17.7083 83.0535 17.7083C103.351 17.7083 104.98 17.8599 105.721 20.5886ZM74.016 53.1816C75.2012 54.5459 75.6457 62.5805 75.3494 78.4979L74.9049 101.844L70.7566 103.208C67.6453 104.421 66.1638 104.117 64.3859 102.298C62.4599 100.328 62.1636 95.9314 62.1636 76.6788C62.3118 60.1549 62.9044 53.1816 64.2378 52.272C67.0527 50.4529 72.2381 50.9076 74.016 53.1816ZM57.8671 67.7347C57.8671 70.3118 56.9782 73.7985 56.0892 75.466C54.6077 78.0432 54.6077 78.9527 56.0892 79.4075C57.1263 79.8623 57.8671 82.7426 57.8671 86.0777V91.9899H40.9774C28.5324 91.9899 23.6433 91.3835 22.4581 89.8676C21.2728 88.3516 21.2728 87.442 22.9025 86.0777C26.3101 83.1974 26.9027 77.2852 24.5322 71.373C23.347 68.3411 22.3099 65.3092 22.3099 64.5512C22.3099 63.7932 30.3103 63.1868 40.0885 63.1868H57.8671V67.7347ZM22.3099 76.3756C22.3099 78.1947 21.5691 81.5298 20.5321 83.6522C19.1987 86.6841 17.8653 87.442 13.4206 87.442C6.75364 87.442 2.6053 83.349 2.45715 76.6788C2.30899 70.9182 5.12394 68.1895 11.9391 67.4315C17.8653 66.8251 22.1618 70.615 22.3099 76.3756ZM159.946 69.2506C164.391 71.6762 164.242 81.833 159.798 85.0165C155.353 88.2 148.242 88.0484 145.871 84.7133C143.501 81.5298 143.204 75.1628 145.427 70.3118C146.76 67.2799 147.945 66.6735 151.946 66.9767C154.612 67.2799 158.316 68.1895 159.946 69.2506ZM54.6077 131.708C58.756 135.194 59.4968 138.833 57.2745 143.381C55.9411 145.806 53.8669 148.08 52.6817 148.686C41.7182 152.931 32.9771 142.319 39.3477 132.314C41.2738 129.434 42.6071 128.979 47.0518 129.434C50.0149 129.737 53.4225 130.798 54.6077 131.708ZM127.5 138.833C127.5 149.899 117.277 153.386 109.721 144.745L105.277 139.894L108.832 135.346C111.351 131.859 113.87 130.495 118.018 129.889C124.981 128.979 127.352 131.253 127.5 138.833Z" fill="#2C688C"/>
<path d="M87.498 64.0963C87.498 65.4607 88.2388 66.2187 89.2759 65.9155C91.9427 65.0059 92.3872 61.6708 89.8685 61.6708C88.5351 61.6708 87.498 62.732 87.498 64.0963Z" fill="#2C688C"/>
<path d="M96.6838 66.5219C97.5727 69.2506 100.832 69.7054 100.832 67.1282C100.832 65.7639 99.795 64.7027 98.4616 64.7027C97.1282 64.7027 96.3874 65.4607 96.6838 66.5219Z" fill="#2C688C"/>
<path d="M105.277 71.5245C105.277 72.7373 106.314 73.7984 107.499 73.7984C108.684 73.7984 109.721 72.7373 109.721 71.5245C109.721 70.3118 108.684 69.2506 107.499 69.2506C106.314 69.2506 105.277 70.3118 105.277 71.5245Z" fill="#2C688C"/>
<path d="M112.684 77.5883C112.684 78.8011 113.721 79.8622 114.907 79.8622C116.092 79.8622 117.129 78.8011 117.129 77.5883C117.129 76.3756 116.092 75.3144 114.907 75.3144C113.721 75.3144 112.684 76.3756 112.684 77.5883Z" fill="#2C688C"/>
<path d="M87.0538 79.2559C85.8685 80.4686 87.2019 82.8941 89.1279 82.8941C89.8687 82.8941 90.4613 81.833 90.4613 80.6202C90.4613 78.3463 88.6835 77.5883 87.0538 79.2559Z" fill="#2C688C"/>
<path d="M96.7725 18.0501C96.7725 19.2628 97.8095 20.324 98.9948 20.324C100.18 20.324 101.217 19.2628 101.217 18.0501C101.217 16.8373 100.18 15.7762 98.9948 15.7762C97.8095 15.7762 96.7725 16.8373 96.7725 18.0501Z" fill="#2C688C"/>
<path d="M119.351 84.5617C117.87 86.8356 119.5 88.0483 122.315 86.8356C123.648 86.3808 124.241 85.3196 123.796 84.4101C122.611 82.4393 120.537 82.4393 119.351 84.5617Z" fill="#2C688C"/>
<path d="M102.314 91.3835C102.314 93.9606 105.573 93.5058 106.462 90.7771C106.758 89.7159 106.018 88.9579 104.684 88.9579C103.351 88.9579 102.314 90.0191 102.314 91.3835Z" fill="#2C688C"/>
<path d="M123.796 93.3542C122.759 95.1733 125.574 96.9925 127.5 95.7797C129.13 94.7185 128.092 91.9898 126.018 91.9898C125.278 91.9898 124.389 92.5962 123.796 93.3542Z" fill="#2C688C"/>
<path d="M108.832 97.1441C107.647 100.479 109.277 102.147 111.499 99.8728C112.833 98.5084 112.833 97.5989 111.499 96.2345C110.166 94.8701 109.573 95.1733 108.832 97.1441Z" fill="#2C688C"/>
<path d="M87.0535 99.1148C85.2756 100.782 85.8683 102.601 88.2387 102.601C89.424 102.601 90.4611 101.54 90.4611 100.328C90.4611 97.902 88.6832 97.2956 87.0535 99.1148Z" fill="#2C688C"/>
<path d="M127.5 103.359C127.5 104.572 128.537 105.633 129.722 105.633C130.908 105.633 131.945 104.572 131.945 103.359C131.945 102.147 130.908 101.086 129.722 101.086C128.537 101.086 127.5 102.147 127.5 103.359Z" fill="#2C688C"/>
<path d="M94.3131 105.179C92.6834 106.846 93.4241 108.665 95.6465 108.665C96.8317 108.665 97.8688 108.059 97.8688 107.301C97.8688 105.33 95.4983 103.966 94.3131 105.179Z" fill="#2C688C"/>
<path d="M112.684 106.24C112.684 107.604 113.721 108.665 115.055 108.665C116.388 108.665 117.129 107.907 116.833 106.846C115.944 104.117 112.684 103.663 112.684 106.24Z" fill="#2C688C"/>
<path d="M99.3506 115.487C99.3506 116.7 100.388 117.761 101.573 117.761C102.758 117.761 103.795 116.7 103.795 115.487C103.795 114.274 102.758 113.213 101.573 113.213C100.388 113.213 99.3506 114.274 99.3506 115.487Z" fill="#2C688C"/>
<path d="M114.907 114.729C114.462 115.639 115.055 116.7 116.388 117.155C119.203 118.367 120.833 117.155 119.352 114.881C118.166 112.758 116.092 112.758 114.907 114.729Z" fill="#2C688C"/>
<path d="M101.573 123.825C100.98 124.734 101.128 126.25 102.017 127.16C102.906 128.069 103.795 128.069 104.536 126.857C105.129 125.947 104.98 124.431 104.091 123.522C103.203 122.612 102.314 122.612 101.573 123.825Z" fill="#2C688C"/>
<path d="M64.8304 59.7001C63.0525 61.3676 63.6451 65.7639 66.0156 67.7346C69.1269 70.3117 68.9787 84.8649 66.0156 87.442C62.3117 90.6255 63.7933 95.6281 68.5342 96.2345C73.2752 96.8409 75.6457 91.6866 72.3863 87.7452C69.8676 84.5617 70.0158 70.3117 72.5344 67.1282C75.2012 63.7931 73.2752 58.6389 69.1269 58.6389C67.349 58.6389 65.2748 59.0937 64.8304 59.7001Z" fill="#2C688C"/>
<path d="M27.7915 67.2798C27.3471 68.0378 27.4952 69.5538 28.236 70.6149C29.7175 73.192 34.6066 71.5245 33.8659 68.7958C32.9769 66.5219 28.8286 65.4607 27.7915 67.2798Z" fill="#2C688C"/>
<path d="M45.2738 67.7346C44.6812 68.7958 44.8293 70.1602 45.7182 71.0697C47.7924 73.1921 52.3852 71.3729 51.6444 68.7958C50.7555 66.3703 46.6072 65.6123 45.2738 67.7346Z" fill="#2C688C"/>
<path d="M36.3846 75.3144C35.792 76.3756 35.9402 77.7399 36.8291 78.6495C38.9033 80.7718 43.4961 78.9527 42.7553 76.3756C41.8664 73.95 37.718 73.1921 36.3846 75.3144Z" fill="#2C688C"/>
<path d="M28.3842 83.5005C27.1989 85.0165 27.3471 86.0776 28.8286 87.442C31.3473 89.4127 34.1622 88.3515 34.1622 85.168C34.1622 82.2877 30.162 81.2266 28.3842 83.5005Z" fill="#2C688C"/>
<path d="M46.1629 83.3489C44.0887 85.926 46.6074 89.5643 49.5705 88.5032C50.9039 87.8968 51.9409 86.5324 51.9409 85.3197C51.9409 82.4394 48.0889 81.075 46.1629 83.3489Z" fill="#2C688C"/>
</svg>
